<svg width="311" height="252" viewBox="0 0 311 252" fill="none" xmlns="http://www.w3.org/2000/svg">
<circle cx="246" cy="149" r="20" fill="#15E3FF"/>
<path d="M65 252C100.899 252 130 222.899 130 187C130 151.101 100.899 122 65 122C29.1015 122 0 151.101 0 187C0 222.899 29.1015 252 65 252Z" fill="#53FF50"/>
<path d="M90.2752 158.115C95.0838 158.115 98.982 154.217 98.982 149.408C98.982 144.599 95.0838 140.701 90.2752 140.701C85.4665 140.701 81.5684 144.599 81.5684 149.408C81.5684 154.217 85.4665 158.115 90.2752 158.115Z" fill="white"/>
<mask id="mask0_464_314" style="mask-type:luminance" maskUnits="userSpaceOnUse" x="81" y="140" width="18" height="19">
<path d="M90.2752 158.115C95.0838 158.115 98.982 154.217 98.982 149.408C98.982 144.599 95.0838 140.701 90.2752 140.701C85.4665 140.701 81.5684 144.599 81.5684 149.408C81.5684 154.217 85.4665 158.115 90.2752 158.115Z" fill="white"/>
</mask>
<g mask="url(#mask0_464_314)">
<path d="M93.0733 154.018C96.8924 154.018 99.9884 150.922 99.9884 147.103C99.9884 143.283 96.8924 140.188 93.0733 140.188C89.2542 140.188 86.1582 143.283 86.1582 147.103C86.1582 150.922 89.2542 154.018 93.0733 154.018Z" fill="#0A0B15"/>
</g>
<path d="M69.949 166.747C74.7577 166.747 78.6559 162.849 78.6559 158.04C78.6559 153.231 74.7577 149.333 69.949 149.333C65.1404 149.333 61.2422 153.231 61.2422 158.04C61.2422 162.849 65.1404 166.747 69.949 166.747Z" fill="white"/>
<mask id="mask1_464_314" style="mask-type:luminance" maskUnits="userSpaceOnUse" x="61" y="149" width="18" height="18">
<path d="M69.949 166.747C74.7577 166.747 78.6559 162.849 78.6559 158.04C78.6559 153.231 74.7577 149.333 69.949 149.333C65.1404 149.333 61.2422 153.231 61.2422 158.04C61.2422 162.849 65.1404 166.747 69.949 166.747Z" fill="white"/>
</mask>
<g mask="url(#mask1_464_314)">
<path d="M72.7471 162.65C76.5662 162.65 79.6622 159.554 79.6622 155.735C79.6622 151.916 76.5662 148.82 72.7471 148.82C68.928 148.82 65.832 151.916 65.832 155.735C65.832 159.554 68.928 162.65 72.7471 162.65Z" fill="#0A0B15"/>
</g>
<path d="M80.8933 165.833C83.4316 168.091 88.135 166.094 88.275 162.697C88.3216 161.736 87.1084 161.139 86.3712 161.736L86.0353 161.997C84.6634 163.071 83.2543 163.584 81.5372 163.789C80.576 163.901 80.1934 165.198 80.9026 165.824L80.8933 165.833Z" fill="#0A0B15"/>
<g clip-path="url(#clip0_464_314)">
<path d="M165.961 87.9614C143.87 87.9614 125.961 70.0528 125.961 47.9614C125.961 25.87 143.87 7.96143 165.961 7.96143C188.052 7.96143 205.961 25.87 205.961 47.9614C205.961 70.0528 188.052 87.9614 165.961 87.9614Z" fill="#15E3FF"/>
<path d="M136.399 54.9105C133.651 54.9105 131.423 52.6827 131.423 49.9345C131.423 47.1863 133.651 44.9585 136.399 44.9585C139.147 44.9585 141.375 47.1863 141.375 49.9345C141.375 52.6827 139.147 54.9105 136.399 54.9105Z" fill="white"/>
<mask id="mask2_464_314" style="mask-type:luminance" maskUnits="userSpaceOnUse" x="131" y="44" width="11" height="11">
<path d="M136.399 54.9105C133.651 54.9105 131.423 52.6827 131.423 49.9345C131.423 47.1863 133.651 44.9585 136.399 44.9585C139.147 44.9585 141.375 47.1863 141.375 49.9345C141.375 52.6827 139.147 54.9105 136.399 54.9105Z" fill="white"/>
</mask>
<g mask="url(#mask2_464_314)">
<path d="M135.046 55.2412C132.863 55.2412 131.094 53.4718 131.094 51.2892C131.094 49.1065 132.863 47.3372 135.046 47.3372C137.229 47.3372 138.998 49.1065 138.998 51.2892C138.998 53.4718 137.229 55.2412 135.046 55.2412Z" fill="#0A0B15"/>
</g>
<path d="M147.327 48.6017C144.579 48.6017 142.351 46.3738 142.351 43.6257C142.351 40.8775 144.579 38.6497 147.327 38.6497C150.075 38.6497 152.303 40.8775 152.303 43.6257C152.303 46.3738 150.075 48.6017 147.327 48.6017Z" fill="white"/>
<mask id="mask3_464_314" style="mask-type:luminance" maskUnits="userSpaceOnUse" x="142" y="38" width="11" height="11">
<path d="M147.327 48.6017C144.579 48.6017 142.351 46.3738 142.351 43.6257C142.351 40.8775 144.579 38.6497 147.327 38.6497C150.075 38.6497 152.303 40.8775 152.303 43.6257C152.303 46.3738 150.075 48.6017 147.327 48.6017Z" fill="white"/>
</mask>
<g mask="url(#mask3_464_314)">
<path d="M145.978 48.9274C143.795 48.9274 142.026 47.1581 142.026 44.9754C142.026 42.7928 143.795 41.0234 145.978 41.0234C148.16 41.0234 149.93 42.7928 149.93 44.9754C149.93 47.1581 148.16 48.9274 145.978 48.9274Z" fill="#0A0B15"/>
</g>
<path d="M147.118 51.306C147.278 53.242 144.744 54.698 143.15 53.594C142.696 53.2847 142.835 52.5273 143.368 52.394L143.603 52.33C144.568 52.074 145.283 51.61 145.971 50.8953C146.355 50.4953 147.075 50.762 147.118 51.306Z" fill="#0A0B15"/>
</g>
<circle cx="73.5" cy="1.5" r="1.5" fill="#15E3FF"/>
<circle cx="279.5" cy="54.5" r="1.5" fill="#53FF50"/>
<circle cx="26" cy="48" r="5" fill="#53FF50"/>
<circle cx="306" cy="202" r="5" fill="#53FF50"/>
<defs>
<clipPath id="clip0_464_314">
<rect width="80" height="80" fill="white" transform="matrix(-1 0 0 1 205.961 7.96143)"/>
</clipPath>
</defs>
</svg>
