<svg width="550" height="560" viewBox="0 0 550 560" fill="none" xmlns="http://www.w3.org/2000/svg">
<circle cx="368" cy="208" r="20" fill="#15E3FF"/>
<rect y="209" width="550" height="291" rx="25" fill="#1D1E27"/>
<g clip-path="url(#clip0_421_169)">
<path d="M187 328.991C225.655 328.991 256.991 297.655 256.991 259C256.991 220.345 225.655 189.01 187 189.01C148.346 189.01 117.01 220.345 117.01 259C117.01 297.655 148.346 328.991 187 328.991Z" fill="#53FF50"/>
<path d="M212.273 225.115C217.082 225.115 220.98 221.217 220.98 216.408C220.98 211.6 217.082 207.701 212.273 207.701C207.465 207.701 203.566 211.6 203.566 216.408C203.566 221.217 207.465 225.115 212.273 225.115Z" fill="white"/>
<mask id="mask0_421_169" style="mask-type:luminance" maskUnits="userSpaceOnUse" x="203" y="207" width="18" height="19">
<path d="M212.273 225.115C217.082 225.115 220.98 221.217 220.98 216.408C220.98 211.6 217.082 207.701 212.273 207.701C207.465 207.701 203.566 211.6 203.566 216.408C203.566 221.217 207.465 225.115 212.273 225.115Z" fill="white"/>
</mask>
<g mask="url(#mask0_421_169)">
<path d="M215.071 221.018C218.89 221.018 221.986 217.922 221.986 214.103C221.986 210.284 218.89 207.188 215.071 207.188C211.252 207.188 208.156 210.284 208.156 214.103C208.156 217.922 211.252 221.018 215.071 221.018Z" fill="#0A0B15"/>
</g>
<path d="M191.947 233.747C196.756 233.747 200.654 229.849 200.654 225.04C200.654 220.232 196.756 216.333 191.947 216.333C187.138 216.333 183.24 220.232 183.24 225.04C183.24 229.849 187.138 233.747 191.947 233.747Z" fill="white"/>
<mask id="mask1_421_169" style="mask-type:luminance" maskUnits="userSpaceOnUse" x="183" y="216" width="18" height="18">
<path d="M191.947 233.747C196.756 233.747 200.654 229.849 200.654 225.04C200.654 220.232 196.756 216.333 191.947 216.333C187.138 216.333 183.24 220.232 183.24 225.04C183.24 229.849 187.138 233.747 191.947 233.747Z" fill="white"/>
</mask>
<g mask="url(#mask1_421_169)">
<path d="M194.745 229.65C198.564 229.65 201.66 226.554 201.66 222.735C201.66 218.916 198.564 215.82 194.745 215.82C190.926 215.82 187.83 218.916 187.83 222.735C187.83 226.554 190.926 229.65 194.745 229.65Z" fill="#0A0B15"/>
</g>
<path d="M202.891 232.833C205.43 235.091 210.133 233.094 210.273 229.697C210.32 228.736 209.106 228.139 208.369 228.736L208.033 228.997C206.661 230.071 205.252 230.584 203.535 230.789C202.574 230.901 202.191 232.198 202.901 232.824L202.891 232.833Z" fill="#0A0B15"/>
</g>
<path d="M275 309C291.918 309 306.383 298.497 312.23 283.655C315.267 275.947 321.716 269 330 269H525C538.807 269 550 280.193 550 294V535C550 548.807 538.807 560 525 560H25C11.1929 560 0 548.807 0 535V294C0 280.193 11.1929 269 25 269H220C228.284 269 234.733 275.947 237.77 283.655C243.617 298.497 258.082 309 275 309Z" fill="#22232C"/>
<g clip-path="url(#clip1_421_169)">
<path d="M287.963 154.961C265.871 154.961 247.963 137.053 247.963 114.961C247.963 92.87 265.871 74.9614 287.963 74.9614C310.054 74.9614 327.963 92.87 327.963 114.961C327.963 137.053 310.054 154.961 287.963 154.961Z" fill="#15E3FF"/>
<path d="M258.401 121.91C255.653 121.91 253.425 119.683 253.425 116.934C253.425 114.186 255.653 111.958 258.401 111.958C261.149 111.958 263.377 114.186 263.377 116.934C263.377 119.683 261.149 121.91 258.401 121.91Z" fill="white"/>
<mask id="mask2_421_169" style="mask-type:luminance" maskUnits="userSpaceOnUse" x="253" y="111" width="11" height="11">
<path d="M258.401 121.91C255.653 121.91 253.425 119.683 253.425 116.934C253.425 114.186 255.653 111.958 258.401 111.958C261.149 111.958 263.377 114.186 263.377 116.934C263.377 119.683 261.149 121.91 258.401 121.91Z" fill="white"/>
</mask>
<g mask="url(#mask2_421_169)">
<path d="M257.048 122.241C254.865 122.241 253.096 120.472 253.096 118.289C253.096 116.107 254.865 114.337 257.048 114.337C259.231 114.337 261 116.107 261 118.289C261 120.472 259.231 122.241 257.048 122.241Z" fill="#0A0B15"/>
</g>
<path d="M269.329 115.602C266.581 115.602 264.353 113.374 264.353 110.626C264.353 107.877 266.581 105.65 269.329 105.65C272.077 105.65 274.305 107.877 274.305 110.626C274.305 113.374 272.077 115.602 269.329 115.602Z" fill="white"/>
<mask id="mask3_421_169" style="mask-type:luminance" maskUnits="userSpaceOnUse" x="264" y="105" width="11" height="11">
<path d="M269.329 115.602C266.581 115.602 264.353 113.374 264.353 110.626C264.353 107.877 266.581 105.65 269.329 105.65C272.077 105.65 274.305 107.877 274.305 110.626C274.305 113.374 272.077 115.602 269.329 115.602Z" fill="white"/>
</mask>
<g mask="url(#mask3_421_169)">
<path d="M267.98 115.927C265.797 115.927 264.028 114.158 264.028 111.975C264.028 109.793 265.797 108.023 267.98 108.023C270.162 108.023 271.932 109.793 271.932 111.975C271.932 114.158 270.162 115.927 267.98 115.927Z" fill="#0A0B15"/>
</g>
<path d="M269.12 118.306C269.28 120.242 266.746 121.698 265.152 120.594C264.698 120.285 264.837 119.527 265.37 119.394L265.605 119.33C266.57 119.074 267.285 118.61 267.973 117.895C268.357 117.495 269.077 117.762 269.12 118.306Z" fill="#0A0B15"/>
</g>
<circle cx="163" cy="20" r="20" fill="#53FF50"/>
<circle cx="428" cy="269" r="5" fill="#53FF50"/>
<circle cx="75.5" cy="168.5" r="1.5" fill="#15E3FF"/>
<circle cx="401.5" cy="121.5" r="1.5" fill="#53FF50"/>
<circle cx="45" cy="314" r="5" fill="#53FF50"/>
<circle cx="148" cy="115" r="5" fill="#53FF50"/>
<circle cx="505" cy="65" r="5" fill="#15E3FF"/>
<defs>
<clipPath id="clip0_421_169">
<rect width="140" height="140" fill="white" transform="translate(117 189)"/>
</clipPath>
<clipPath id="clip1_421_169">
<rect width="80" height="80" fill="white" transform="matrix(-1 0 0 1 327.963 74.9614)"/>
</clipPath>
</defs>
</svg>
