<svg width="31" height="25" viewBox="0 0 31 25" fill="none" xmlns="http://www.w3.org/2000/svg">
<g id="Icon">
<path id="Vector" d="M25.6264 3.15728C23.7322 2.28273 21.7331 1.65908 19.6793 1.30195C19.6607 1.29845 19.6414 1.30097 19.6242 1.30913C19.6071 1.31729 19.5929 1.33068 19.5837 1.34741C19.3269 1.80688 19.0424 2.40623 18.8432 2.87735C16.5975 2.53916 14.3633 2.53916 12.1636 2.87735C11.9644 2.39578 11.6696 1.80688 11.4116 1.34741C11.402 1.33104 11.3878 1.31794 11.3708 1.30983C11.3537 1.30172 11.3346 1.29897 11.316 1.30195C9.22923 1.66344 7.23229 2.29666 5.36888 3.15728C5.35266 3.1642 5.33899 3.17601 5.32973 3.19109C1.54197 8.88297 0.504292 14.435 1.01331 19.9181C1.0156 19.9449 1.0306 19.9706 1.05132 19.9869C3.55038 21.8329 5.9712 22.9535 8.347 23.6964C8.36548 23.7019 8.38519 23.7017 8.40351 23.6956C8.42183 23.6896 8.43788 23.678 8.44949 23.6626C9.01147 22.8906 9.51245 22.0767 9.94198 21.2207C9.96731 21.1706 9.94312 21.1111 9.8913 21.0913C9.09667 20.7881 8.34004 20.4184 7.61217 19.9986C7.55459 19.9648 7.54997 19.882 7.60299 19.8423C7.75657 19.7269 7.90749 19.6079 8.05563 19.4855C8.06862 19.4747 8.08434 19.4678 8.10103 19.4655C8.11771 19.4633 8.1347 19.4657 8.15007 19.4726C12.9317 21.6685 18.1084 21.6685 22.8335 19.4726C22.8489 19.4653 22.8661 19.4625 22.883 19.4645C22.8999 19.4666 22.9159 19.4734 22.9291 19.4843C23.0774 19.6074 23.2287 19.7267 23.3829 19.8423C23.4359 19.8819 23.4324 19.9648 23.3749 19.9986C22.647 20.4265 21.8904 20.788 21.0946 21.09C21.0823 21.0948 21.0712 21.102 21.062 21.1114C21.0527 21.1207 21.0455 21.1319 21.0408 21.1442C21.0362 21.1565 21.0341 21.1697 21.0349 21.1829C21.0356 21.196 21.0391 21.2089 21.0451 21.2206C21.4839 22.0754 21.9849 22.8894 22.5365 23.6614C22.5595 23.694 22.6009 23.708 22.6389 23.6963C25.0263 22.9535 27.4471 21.8328 29.9462 19.9869C29.9569 19.979 29.9659 19.9688 29.9724 19.9572C29.979 19.9455 29.983 19.9326 29.9842 19.9192C30.5934 13.5801 28.9638 8.07366 25.6643 3.19224C25.6563 3.17641 25.6428 3.16401 25.6264 3.15728ZM10.6561 16.5794C9.21656 16.5794 8.03035 15.2501 8.03035 13.6174C8.03035 11.9849 9.19351 10.6555 10.6561 10.6555C12.1302 10.6555 13.3049 11.9965 13.2819 13.6174C13.2819 15.2501 12.1187 16.5794 10.6561 16.5794ZM20.3645 16.5794C18.925 16.5794 17.7388 15.2501 17.7388 13.6174C17.7388 11.9849 18.9019 10.6555 20.3645 10.6555C21.8386 10.6555 23.0133 11.9965 22.9903 13.6174C22.9903 15.2501 21.8387 16.5794 20.3645 16.5794Z" fill="#0A0B15"/>
</g>
</svg>
