<svg width="380" height="300" viewBox="0 0 380 300" fill="none" xmlns="http://www.w3.org/2000/svg">
<circle cx="190" cy="190" r="190" fill="#2F2F38"/>
<circle cx="190" cy="190" r="150" fill="#3B3C44"/>
<circle cx="190" cy="190" r="110" fill="#474850"/>
<path d="M250 131L250 380" stroke="#22232C" stroke-width="10" stroke-linecap="round"/>
<path d="M130 131L130 380" stroke="#22232C" stroke-width="10" stroke-linecap="round"/>
<path d="M250 161L130 161" stroke="#22232C" stroke-width="10" stroke-linecap="round"/>
<path d="M250 201L130 201" stroke="#22232C" stroke-width="10" stroke-linecap="round"/>
<path d="M250 241L130 241" stroke="#22232C" stroke-width="10" stroke-linecap="round"/>
<path d="M250 281H130" stroke="#22232C" stroke-width="10" stroke-linecap="round"/>
<g clip-path="url(#clip0_421_168)">
<path d="M173 201C153.67 201 138 185.33 138 166C138 146.67 153.67 131 173 131C192.33 131 208 146.67 208 166C208 185.33 192.33 201 173 201Z" fill="#FF7425"/>
<path d="M181.132 188.966C183.121 187.615 183.637 184.907 182.286 182.918C180.934 180.929 178.227 180.413 176.238 181.764C174.249 183.116 173.732 185.823 175.084 187.812C176.435 189.801 179.143 190.318 181.132 188.966Z" fill="white"/>
<mask id="mask0_421_168" style="mask-type:luminance" maskUnits="userSpaceOnUse" x="174" y="181" width="10" height="9">
<path d="M181.132 188.966C183.121 187.615 183.637 184.907 182.286 182.918C180.934 180.929 178.227 180.413 176.238 181.764C174.249 183.116 173.732 185.823 175.084 187.812C176.435 189.801 179.143 190.318 181.132 188.966Z" fill="white"/>
</mask>
<g mask="url(#mask0_421_168)">
<path d="M182.274 188.541C183.854 187.467 184.264 185.317 183.191 183.737C182.118 182.158 179.967 181.747 178.387 182.82C176.808 183.894 176.397 186.044 177.471 187.624C178.544 189.203 180.695 189.614 182.274 188.541Z" fill="#0A0B15"/>
</g>
<path d="M170.12 189.771C172.109 188.42 172.626 185.712 171.274 183.723C169.923 181.734 167.215 181.218 165.226 182.569C163.237 183.921 162.721 186.628 164.072 188.617C165.423 190.606 168.131 191.123 170.12 189.771Z" fill="white"/>
<mask id="mask1_421_168" style="mask-type:luminance" maskUnits="userSpaceOnUse" x="163" y="181" width="10" height="10">
<path d="M170.12 189.771C172.109 188.42 172.626 185.712 171.274 183.723C169.923 181.734 167.215 181.218 165.226 182.569C163.237 183.921 162.721 186.628 164.072 188.617C165.423 190.606 168.131 191.123 170.12 189.771Z" fill="white"/>
</mask>
<g mask="url(#mask1_421_168)">
<path d="M171.255 189.344C172.834 188.271 173.245 186.12 172.171 184.541C171.098 182.961 168.947 182.551 167.368 183.624C165.788 184.697 165.378 186.848 166.451 188.427C167.525 190.007 169.675 190.417 171.255 189.344Z" fill="#0A0B15"/>
</g>
<path d="M171.601 191.627C172.437 193.107 174.986 192.915 175.597 191.332C175.773 190.885 175.301 190.405 174.849 190.571L174.648 190.64C173.823 190.93 173.078 190.945 172.228 190.766C171.754 190.666 171.364 191.213 171.601 191.627Z" fill="#0A0B15"/>
</g>
<defs>
<clipPath id="clip0_421_168">
<rect width="70" height="70" fill="white" transform="matrix(-1 8.74228e-08 8.74228e-08 1 208 131)"/>
</clipPath>
</defs>
</svg>
