<svg width="460" height="465" viewBox="0 0 460 465" fill="none" xmlns="http://www.w3.org/2000/svg">
<circle cx="230" cy="235" r="230" transform="rotate(-180 230 235)" fill="#2F2F38"/>
<circle cx="229.999" cy="235.001" r="181.579" transform="rotate(-180 229.999 235.001)" fill="#3B3C44"/>
<circle cx="230.002" cy="234.999" r="133.158" transform="rotate(-180 230.002 234.999)" fill="#474850"/>
<path d="M157.369 306.424L157.369 5.00329" stroke="#22232C" stroke-width="10" stroke-linecap="round"/>
<path d="M302.633 306.423L302.633 5.00231" stroke="#22232C" stroke-width="10" stroke-linecap="round"/>
<path d="M157.369 270.108L302.632 270.108" stroke="#22232C" stroke-width="10" stroke-linecap="round"/>
<path d="M157.367 221.688L302.63 221.688" stroke="#22232C" stroke-width="10" stroke-linecap="round"/>
<path d="M157.367 173.266L302.63 173.266" stroke="#22232C" stroke-width="10" stroke-linecap="round"/>
<path d="M157.369 124.845L302.632 124.845" stroke="#22232C" stroke-width="10" stroke-linecap="round"/>
<g clip-path="url(#clip0_462_217)">
<path d="M251.663 296.333C228.864 296.333 210.381 277.851 210.381 255.051C210.381 232.252 228.864 213.769 251.663 213.769C274.463 213.769 292.945 232.252 292.945 255.051C292.945 277.851 274.463 296.333 251.663 296.333Z" fill="#FF7425"/>
<path d="M244.282 243.512C246.627 241.918 247.237 238.724 245.643 236.378C244.049 234.032 240.855 233.423 238.509 235.017C236.163 236.611 235.554 239.805 237.148 242.15C238.742 244.496 241.936 245.106 244.282 243.512Z" fill="white"/>
<mask id="mask0_462_217" style="mask-type:luminance" maskUnits="userSpaceOnUse" x="236" y="234" width="11" height="11">
<path d="M244.282 243.512C246.627 241.917 247.237 238.724 245.643 236.378C244.049 234.032 240.855 233.423 238.509 235.017C236.163 236.611 235.554 239.805 237.148 242.15C238.742 244.496 241.936 245.106 244.282 243.512Z" fill="white"/>
</mask>
<g mask="url(#mask0_462_217)">
<path d="M245.63 243.009C247.493 241.743 247.977 239.207 246.711 237.344C245.445 235.481 242.908 234.997 241.045 236.263C239.182 237.529 238.698 240.065 239.964 241.928C241.23 243.791 243.767 244.275 245.63 243.009Z" fill="#0A0B15"/>
</g>
<path d="M231.293 244.461C233.639 242.867 234.248 239.673 232.654 237.327C231.06 234.981 227.867 234.372 225.521 235.966C223.175 237.56 222.566 240.754 224.16 243.1C225.754 245.445 228.948 246.055 231.293 244.461Z" fill="white"/>
<mask id="mask1_462_217" style="mask-type:luminance" maskUnits="userSpaceOnUse" x="223" y="235" width="11" height="11">
<path d="M231.293 244.461C233.639 242.867 234.248 239.673 232.654 237.327C231.06 234.981 227.867 234.372 225.521 235.966C223.175 237.56 222.566 240.754 224.16 243.1C225.754 245.445 228.948 246.055 231.293 244.461Z" fill="white"/>
</mask>
<g mask="url(#mask1_462_217)">
<path d="M232.632 243.957C234.495 242.691 234.979 240.154 233.713 238.291C232.447 236.428 229.91 235.944 228.047 237.21C226.184 238.476 225.7 241.013 226.966 242.876C228.232 244.739 230.769 245.223 232.632 243.957Z" fill="#0A0B15"/>
</g>
<path d="M233.039 246.65C234.026 248.395 237.033 248.169 237.754 246.302C237.961 245.775 237.404 245.209 236.871 245.404L236.634 245.486C235.661 245.827 234.782 245.845 233.78 245.634C233.22 245.516 232.76 246.161 233.039 246.65Z" fill="#0A0B15"/>
</g>
<defs>
<clipPath id="clip0_462_217">
<rect width="82.5641" height="82.5641" fill="white" transform="matrix(-1 -8.74228e-08 -8.74228e-08 1 292.945 213.769)"/>
</clipPath>
</defs>
</svg>
