<svg width="428" height="397" viewBox="0 0 428 397" fill="none" xmlns="http://www.w3.org/2000/svg">
<circle cx="301.5" cy="270.307" r="112.5" stroke="#1D1E27" stroke-width="2" stroke-linecap="round" stroke-dasharray="2 5"/>
<g clip-path="url(#clip0_459_216)">
<path d="M255.252 350.414C211.01 324.871 195.852 268.299 221.395 224.057C246.938 179.815 303.51 164.656 347.752 190.199C391.994 215.742 407.153 272.315 381.609 316.557C356.066 360.799 299.494 375.957 255.252 350.414Z" fill="#FF7425"/>
<path d="M234.266 250.043C228.762 246.865 226.877 239.828 230.054 234.324C233.232 228.82 240.269 226.935 245.773 230.112C251.277 233.29 253.162 240.327 249.985 245.831C246.807 251.335 239.77 253.22 234.266 250.043Z" fill="white"/>
<mask id="mask0_459_216" style="mask-type:luminance" maskUnits="userSpaceOnUse" x="228" y="228" width="24" height="24">
<path d="M234.266 250.043C228.762 246.865 226.877 239.828 230.054 234.324C233.232 228.82 240.269 226.935 245.773 230.112C251.277 233.29 253.162 240.327 249.985 245.831C246.807 251.335 239.77 253.22 234.266 250.043Z" fill="white"/>
</mask>
<g mask="url(#mask0_459_216)">
<path d="M231.173 249.14C226.802 246.616 225.304 241.027 227.828 236.656C230.352 232.285 235.941 230.787 240.312 233.311C244.683 235.835 246.181 241.424 243.657 245.795C241.133 250.166 235.544 251.664 231.173 249.14Z" fill="#0A0B15"/>
</g>
<path d="M263.446 250.042C257.942 246.864 256.056 239.827 259.234 234.323C262.411 228.819 269.449 226.933 274.953 230.111C280.456 233.289 282.342 240.326 279.164 245.83C275.987 251.334 268.949 253.219 263.446 250.042Z" fill="white"/>
<mask id="mask1_459_216" style="mask-type:luminance" maskUnits="userSpaceOnUse" x="257" y="228" width="24" height="24">
<path d="M263.446 250.042C257.942 246.864 256.056 239.827 259.234 234.323C262.411 228.819 269.449 226.933 274.953 230.111C280.456 233.289 282.342 240.326 279.164 245.83C275.987 251.334 268.949 253.219 263.446 250.042Z" fill="white"/>
</mask>
<g mask="url(#mask1_459_216)">
<path d="M260.368 249.134C255.997 246.611 254.499 241.021 257.023 236.65C259.547 232.279 265.136 230.781 269.507 233.305C273.878 235.829 275.376 241.418 272.852 245.789C270.329 250.16 264.739 251.658 260.368 249.134Z" fill="#0A0B15"/>
</g>
<path d="M259.902 255.216C257.984 259.278 251.227 259.265 249.31 255.21C248.759 254.067 249.913 252.71 251.135 253.06L251.679 253.203C253.908 253.806 255.876 253.704 258.08 253.068C259.312 252.711 260.445 254.077 259.902 255.216Z" fill="#0A0B15"/>
</g>
<g clip-path="url(#clip1_459_216)">
<path d="M81 212.807C47.8629 212.807 21 185.944 21 152.807C21 119.67 47.8629 92.8066 81 92.8066C114.137 92.8066 141 119.67 141 152.807C141 185.944 114.137 212.807 81 212.807Z" fill="#53FF50"/>
<path d="M101.031 199.445C104.441 197.129 105.328 192.487 103.012 189.077C100.695 185.667 96.0534 184.78 92.6433 187.096C89.2332 189.413 88.3463 194.054 90.6624 197.465C92.9785 200.875 97.6205 201.761 101.031 199.445Z" fill="white"/>
<mask id="mask2_459_216" style="mask-type:luminance" maskUnits="userSpaceOnUse" x="89" y="185" width="16" height="16">
<path d="M101.031 199.445C104.441 197.129 105.328 192.487 103.012 189.077C100.695 185.667 96.0534 184.78 92.6433 187.096C89.2332 189.413 88.3463 194.054 90.6625 197.465C92.9786 200.875 97.6207 201.761 101.031 199.445Z" fill="white"/>
</mask>
<g mask="url(#mask2_459_216)">
<path d="M102.991 198.715C105.699 196.876 106.404 193.189 104.564 190.481C102.725 187.772 99.038 187.068 96.3297 188.907C93.6213 190.747 92.917 194.434 94.7564 197.142C96.5959 199.85 100.283 200.555 102.991 198.715Z" fill="#0A0B15"/>
</g>
<path d="M82.1518 200.825C85.5619 198.509 86.4487 193.867 84.1326 190.457C81.8165 187.047 77.1745 186.16 73.7644 188.476C70.3543 190.792 69.4674 195.434 71.7835 198.844C74.0996 202.254 78.7416 203.141 82.1518 200.825Z" fill="white"/>
<mask id="mask3_459_216" style="mask-type:luminance" maskUnits="userSpaceOnUse" x="70" y="187" width="16" height="16">
<path d="M82.1518 200.825C85.5619 198.509 86.4488 193.867 84.1326 190.457C81.8165 187.047 77.1745 186.16 73.7644 188.476C70.3543 190.792 69.4674 195.434 71.7836 198.844C74.0997 202.254 78.7418 203.141 82.1518 200.825Z" fill="white"/>
</mask>
<g mask="url(#mask3_459_216)">
<path d="M84.0964 200.093C86.8047 198.253 87.5091 194.566 85.6696 191.858C83.8302 189.15 80.1435 188.445 77.4351 190.285C74.7268 192.124 74.0224 195.811 75.8619 198.519C77.7014 201.228 81.3881 201.932 84.0964 200.093Z" fill="#0A0B15"/>
</g>
<path d="M84.6889 204.005C86.122 206.542 90.4926 206.214 91.5409 203.5C91.8427 202.734 91.0324 201.911 90.2583 202.195L89.9131 202.314C88.4995 202.81 87.2217 202.836 85.7657 202.529C84.9521 202.356 84.2834 203.294 84.6889 204.005Z" fill="#0A0B15"/>
</g>
<circle cx="81" cy="152.807" r="80" stroke="#1D1E27" stroke-width="2" stroke-linecap="round" stroke-dasharray="2 5"/>
<path d="M160.998 152.807C179.498 174.973 213.997 159.382 191.498 121.307C178.498 99.3066 180.497 73.3066 213.997 42.8066C247.497 12.3066 259.497 42.8066 238.497 59.3066C217.497 75.8066 159.877 97.2728 144.997 66.3065C126.497 7.8066 307.497 -29.6934 324.997 34.8066C342.497 99.3066 213.997 147.806 213.997 114.807C213.997 81.8066 299.497 86.3066 319.497 114.807C334.997 130.307 308.664 155.973 305.997 157.307" stroke="#1D1E27" stroke-width="2" stroke-linecap="round" stroke-dasharray="2 5"/>
<defs>
<clipPath id="clip0_459_216">
<rect width="185" height="185" fill="white" transform="matrix(-0.866025 -0.5 -0.5 0.866025 427.859 236.449)"/>
</clipPath>
<clipPath id="clip1_459_216">
<rect width="120" height="120" fill="white" transform="matrix(-1 8.74228e-08 8.74228e-08 1 141 92.8066)"/>
</clipPath>
</defs>
</svg>
