<svg width="28" height="27" viewBox="0 0 28 27" fill="none" xmlns="http://www.w3.org/2000/svg">
<path d="M13.7526 0.753601C21.1168 0.753601 27.0815 6.71825 27.0815 14.0824C27.0808 16.8751 26.2043 19.5973 24.5754 21.8658C22.9465 24.1343 20.6472 25.8349 18.0012 26.7281C17.3348 26.8614 17.0849 26.4449 17.0849 26.095C17.0849 25.6452 17.1015 24.2123 17.1015 22.4296C17.1015 21.18 16.685 20.3803 16.2018 19.9638C19.1675 19.6305 22.2831 18.4976 22.2831 13.3827C22.2831 11.9165 21.7666 10.7336 20.9169 9.80054C21.0502 9.46732 21.5167 8.10111 20.7836 6.2684C20.7836 6.2684 19.6673 5.90186 17.1182 7.6346C16.0519 7.33471 14.9189 7.18476 13.786 7.18476C12.653 7.18476 11.5201 7.33471 10.4538 7.6346C7.90463 5.91852 6.78834 6.2684 6.78834 6.2684C6.05526 8.10111 6.52176 9.46732 6.65505 9.80054C5.80534 10.7336 5.28885 11.9331 5.28885 13.3827C5.28885 18.4809 8.3878 19.6305 11.3535 19.9638C10.9703 20.297 10.6204 20.8801 10.5037 21.7465C9.73734 22.0964 7.82132 22.6628 6.62173 20.6469C6.37181 20.247 5.62207 19.264 4.57242 19.2807C3.45614 19.2973 4.12258 19.9138 4.58909 20.1637C5.15556 20.4803 5.80534 21.6632 5.95529 22.0464C6.22187 22.7961 7.08824 24.229 10.4371 23.6125C10.4371 24.7288 10.4538 25.7785 10.4538 26.095C10.4538 26.4449 10.2038 26.8448 9.53741 26.7281C6.88271 25.8445 4.57365 24.1474 2.93779 21.8775C1.30194 19.6077 0.422361 16.8803 0.42383 14.0824C0.42383 6.71825 6.38848 0.753601 13.7526 0.753601Z" fill="#0A0B15"/>
</svg>
