<svg width="23" height="22" viewBox="0 0 23 22" fill="none" xmlns="http://www.w3.org/2000/svg">
<g id="Vector">
<path d="M21.5531 1L13.1029 7.2508L14.6785 3.56592L21.5531 1Z" fill="#E17726"/>
<path d="M2.06752 1L10.4405 7.30225L8.94212 3.57235L2.06752 1ZM18.5113 15.4887L16.2604 18.9228L21.0772 20.2476L22.4534 15.5659L18.5113 15.4887ZM1.17363 15.5659L2.54341 20.2476L7.34727 18.9228L5.10932 15.4887L1.17363 15.5659Z" fill="#E27625"/>
<path d="M7.09003 9.6881L5.75241 11.7074L10.5113 11.926L10.3569 6.80064L7.09003 9.69453V9.6881ZM16.5305 9.69453L13.2122 6.73633L13.1029 11.926L17.8617 11.7074L16.5305 9.69453ZM7.34727 18.9228L10.2347 17.5338L7.75241 15.6045L7.34727 18.9228ZM13.3923 17.5273L16.2604 18.9228L15.8746 15.5981L13.3923 17.5273Z" fill="#E27625"/>
<path d="M16.2604 18.9228L13.3923 17.5338L13.6238 19.3987L13.5981 20.1897L16.2604 18.9228ZM7.34727 18.9228L10.0225 20.1897L10.0032 19.3987L10.2347 17.5338L7.34727 18.9228Z" fill="#D5BFB2"/>
<path d="M10.0675 14.3633L7.6881 13.6688L9.37299 12.8971L10.074 14.3633H10.0675ZM13.5466 14.3633L14.254 12.8907L15.9453 13.6624L13.5466 14.3698V14.3633Z" fill="#233447"/>
<path d="M7.34727 18.9228L7.76527 15.4887L5.10932 15.5659L7.34727 18.9228ZM15.8553 15.4887L16.2604 18.9228L18.5113 15.5659L15.8553 15.4887ZM17.8682 11.7074L13.1093 11.926L13.5466 14.3698L14.254 12.8907L15.9453 13.6624L17.8682 11.7074ZM7.6881 13.6688L9.37299 12.8971L10.074 14.3633L10.5177 11.9196L5.75884 11.7074L7.6881 13.6688Z" fill="#CC6228"/>
<path d="M5.75884 11.7074L7.75241 15.5981L7.6881 13.6688L5.75884 11.7074ZM15.9453 13.6688L15.8682 15.5981L17.8617 11.7074L15.9453 13.6688ZM10.5177 11.926L10.0675 14.3698L10.6334 17.2508L10.7621 13.4502L10.5177 11.926ZM13.1029 11.926L12.8714 13.4437L12.9871 17.2508L13.5466 14.3633L13.1029 11.9196L13.1029 11.926Z" fill="#E27525"/>
<path d="M13.5466 14.3633L12.9871 17.2508L13.3923 17.5338L15.8682 15.6045L15.9453 13.6688L13.5466 14.3633ZM7.6881 13.6688L7.75241 15.5981L10.2347 17.5273L10.6334 17.2508L10.074 14.3633L7.68167 13.6688H7.6881Z" fill="#F5841F"/>
<path d="M13.6045 20.1897L13.6238 19.3987L13.4051 19.2187H10.2154L10.0032 19.3987L10.0225 20.1897L7.34727 18.9228L8.28617 19.6945L10.1833 21H13.4309L15.3344 19.6881L16.2604 18.9228L13.5981 20.1897L13.6045 20.1897Z" fill="#C0AC9D"/>
<path d="M13.3923 17.5273L12.9871 17.2508H10.6334L10.2347 17.5338L10.0032 19.3987L10.2154 19.2187H13.4051L13.6238 19.3987L13.3923 17.5338V17.5273Z" fill="#161616"/>
<path d="M21.9132 7.65595L22.6206 4.21543L21.5531 1L13.3859 7.04502L16.5305 9.6881L20.9678 10.9807L21.9453 9.84244L21.5209 9.53376L22.1961 8.9164L21.6817 8.51768L22.3569 8.00322L21.9068 7.65595H21.9132ZM1 4.209L1.72026 7.65595L1.25723 7.99678L1.94534 8.51125L1.43087 8.9164L2.09968 9.53376L1.67524 9.84244L2.65273 10.9807L7.09003 9.69453L10.2347 7.03859L2.06752 1L1 4.209Z" fill="#763E1A"/>
<path d="M20.9678 10.9807L16.5305 9.69453L17.8682 11.7074L15.8746 15.5981L18.5113 15.5659L22.4534 15.5659L20.9678 10.9807ZM7.09003 9.6881L2.65273 10.9807L1.17363 15.5659H5.11576L7.75241 15.5981L5.75884 11.7074L7.09646 9.6881H7.09003ZM13.1029 11.926L13.3923 7.03859L14.6785 3.56592L8.94212 3.56592L10.2283 7.03859L10.5177 11.926L10.627 13.4566V17.2508H12.9871L13 13.4566L13.1029 11.926Z" fill="#F5841F"/>
<path d="M21.5531 1L13.1029 7.2508L14.6785 3.56592M21.5531 1L14.6785 3.56592M21.5531 1L22.6206 4.21543L21.9132 7.65595H21.9068L22.3569 8.00322L21.6817 8.51768L22.1961 8.9164L21.5209 9.53376L21.9453 9.84244L20.9678 10.9807M21.5531 1L13.3859 7.04502L16.5305 9.6881L20.9678 10.9807M14.6785 3.56592L13.3923 7.03859L13.1029 11.926M14.6785 3.56592L8.94212 3.56592L10.2283 7.03859L10.5177 11.926M2.06752 1L10.4405 7.30225L8.94212 3.57235L2.06752 1ZM2.06752 1L10.2347 7.03859L7.09003 9.69453M2.06752 1L1 4.209L1.72026 7.65595L1.25723 7.99678L1.94534 8.51125L1.43087 8.9164L2.09968 9.53376L1.67524 9.84244L2.65273 10.9807M16.2604 18.9228L18.5113 15.4887L22.4534 15.5659M16.2604 18.9228L21.0772 20.2476L22.4534 15.5659M16.2604 18.9228L13.3923 17.5273M16.2604 18.9228L15.8746 15.5981M16.2604 18.9228L13.3923 17.5338M16.2604 18.9228L13.5981 20.1897M16.2604 18.9228L15.8553 15.4887L18.5113 15.5659M16.2604 18.9228L18.5113 15.5659M16.2604 18.9228L15.3344 19.6881L13.4309 21H10.1833L8.28617 19.6945L7.34727 18.9228M22.4534 15.5659L18.5113 15.5659M22.4534 15.5659L20.9678 10.9807M1.17363 15.5659L2.54341 20.2476L7.34727 18.9228M1.17363 15.5659L5.10932 15.4887L7.34727 18.9228M1.17363 15.5659L2.65273 10.9807M1.17363 15.5659H5.11576L7.75241 15.5981M7.34727 18.9228L10.2347 17.5338M7.34727 18.9228L7.75241 15.6045L10.2347 17.5338M7.34727 18.9228L10.0225 20.1897L10.0032 19.3987M7.34727 18.9228L7.76527 15.4887L5.10932 15.5659L7.34727 18.9228ZM7.09003 9.6881L5.75241 11.7074L10.5113 11.926L10.3569 6.80064L7.09003 9.69453M7.09003 9.6881V9.69453M7.09003 9.6881L2.65273 10.9807M7.09003 9.6881H7.09646L5.75884 11.7074M7.09003 9.69453L2.65273 10.9807M16.5305 9.69453L13.2122 6.73633L13.1029 11.926M16.5305 9.69453L17.8617 11.7074M16.5305 9.69453L20.9678 10.9807M16.5305 9.69453L17.8682 11.7074M13.1029 11.926L17.8617 11.7074M13.1029 11.926L12.8714 13.4437L12.9871 17.2508M13.1029 11.926L13.1029 11.9196L13.5466 14.3633M13.1029 11.926L13 13.4566L12.9871 17.2508M17.8617 11.7074L15.8682 15.5981L15.9453 13.6688M17.8617 11.7074L15.9453 13.6688M10.2347 17.5338L10.0032 19.3987M10.2347 17.5338L10.6334 17.2508M13.3923 17.5273L15.8746 15.5981M13.3923 17.5273L12.9871 17.2508M13.3923 17.5273V17.5338M15.8746 15.5981L17.8682 11.7074M15.8746 15.5981L18.5113 15.5659M13.3923 17.5338L13.6238 19.3987M13.3923 17.5338L12.9871 17.2508M13.3923 17.5338L15.8682 15.6045L15.9453 13.6688M13.6238 19.3987L13.5981 20.1897M13.6238 19.3987L13.6045 20.1897L13.5981 20.1897M13.6238 19.3987L13.4051 19.2187H10.2154L10.0032 19.3987M7.6881 13.6688L10.0675 14.3633H10.074M7.6881 13.6688L9.37299 12.8971L10.074 14.3633M7.6881 13.6688L5.75884 11.7074M7.6881 13.6688L7.75241 15.5981M7.6881 13.6688H7.68167L10.074 14.3633M10.074 14.3633L10.5177 11.9196L5.75884 11.7074M10.074 14.3633L10.6334 17.2508M13.5466 14.3633L14.254 12.8907M13.5466 14.3633V14.3698M13.5466 14.3633L12.9871 17.2508M13.5466 14.3633L15.9453 13.6688M14.254 12.8907L15.9453 13.6624M14.254 12.8907L13.5466 14.3698M15.9453 13.6624L13.5466 14.3698M15.9453 13.6624L17.8682 11.7074M13.5466 14.3698L13.1093 11.926L17.8682 11.7074M5.75884 11.7074L7.75241 15.5981M7.75241 15.5981L10.2347 17.5273L10.6334 17.2508M10.5177 11.926L10.0675 14.3698L10.6334 17.2508M10.5177 11.926L10.7621 13.4502L10.6334 17.2508M10.5177 11.926L10.627 13.4566V17.2508H12.9871M10.6334 17.2508H12.9871" stroke="#F5841F" stroke-width="0.30303" stroke-linecap="round" stroke-linejoin="round"/>
</g>
</svg>
