<svg width="90" height="30" viewBox="0 0 90 30" fill="none" xmlns="http://www.w3.org/2000/svg">
<path d="M22.3682 0.496141L21.7423 0.463065L14.3631 11.4443L6.98389 0.463065L6.35798 0.496141V0.463065H0V28.247H6.35798V10.4851L14.396 22.161L22.3682 10.419V28.247H28.7262V0.463065H22.3682V0.496141Z" fill="white"/>
<path d="M41.2445 5.5237C42.3646 5.5237 43.254 5.82139 43.9458 6.38368C44.6376 6.97905 45.0988 7.6075 45.2965 8.33517L51.5556 6.48291C50.9956 5.06064 50.2709 3.8699 49.3155 2.91069C48.3931 1.95149 47.2401 1.22381 45.9224 0.76075C44.6047 0.264609 43.0564 0.0330761 41.3104 0.0330761C38.082 0.0330761 35.6113 0.793826 33.8324 2.28225C32.0534 3.77067 31.1969 5.85447 31.1969 8.53363C31.1969 9.92282 31.4934 11.1466 32.0534 12.2051C32.6135 13.2635 33.4041 14.1896 34.4253 14.9173C35.4466 15.645 36.6325 16.2073 38.0161 16.538L41.9363 17.5303C42.8917 17.7949 43.6164 18.1918 44.1435 18.688C44.6706 19.1841 44.9012 19.7795 44.9012 20.441C44.9012 21.301 44.5388 21.9625 43.8141 22.4917C43.0893 23.0209 42.1999 23.2856 41.1127 23.2525C39.9927 23.2525 39.1032 22.9217 38.3785 22.3594C37.6537 21.7971 37.1596 21.1356 36.8631 20.3418L30.571 22.1279C30.7357 23.0209 31.131 23.8809 31.757 24.6417C32.3829 25.4355 33.2064 26.1301 34.1947 26.7585C35.183 27.387 36.3031 27.8831 37.522 28.2139C38.7408 28.5777 40.0256 28.7431 41.3763 28.7431C43.5505 28.7431 45.3953 28.4123 46.9107 27.7178C48.4261 27.0232 49.612 26.097 50.4026 24.8401C51.1933 23.5832 51.6215 22.0948 51.6215 20.3418C51.6215 18.4234 50.9956 16.6703 49.7438 15.1488C48.492 13.6273 46.746 12.602 44.5059 12.0397L40.5857 11.0474C39.7291 10.849 39.0373 10.5182 38.5432 10.0882C38.049 9.65821 37.7855 9.09592 37.7855 8.4344C37.7855 7.47519 38.082 6.74752 38.7079 6.25138C39.3338 5.75524 40.1903 5.49063 41.3104 5.49063L41.2445 5.5237Z" fill="white"/>
<path d="M81.1054 14.4212C81.1054 11.6097 80.4795 9.129 79.2606 6.94598C78.0088 4.76295 76.3287 3.07608 74.1545 1.85226C71.9802 0.628446 69.4766 0 66.6764 0C64.5351 0 62.5915 0.363837 60.8455 1.05843C59.0996 1.75303 57.5842 2.74531 56.2665 4.06836C54.9817 5.35833 53.9605 6.87982 53.2687 8.63286C52.5439 10.3859 52.2145 12.3043 52.2145 14.4212C52.2145 17.1996 52.8404 19.6803 54.0593 21.8302C55.3111 23.9802 57.0242 25.667 59.1984 26.9239C61.3726 28.1808 63.9092 28.7762 66.7423 28.7762C69.4107 28.7762 71.7826 28.2139 73.858 27.0893L76.6911 30L80.6442 26.097L78.0747 23.4509C78.5029 22.9217 78.9641 22.4256 79.2936 21.8302C80.5124 19.6803 81.1384 17.1996 81.1384 14.4212H81.1054ZM70.399 15.5788L66.3141 19.4157L69.2789 22.4256C68.4883 22.6902 67.6318 22.8556 66.7094 22.8556C65.1611 22.8556 63.7775 22.4917 62.5586 21.7971C61.3397 21.0695 60.3843 20.0772 59.7255 18.7872C59.0337 17.4972 58.7042 16.0419 58.7042 14.355C58.7042 12.6681 59.0337 11.2459 59.7255 9.9559C60.4173 8.66593 61.3397 7.67365 62.5256 6.94598C63.7116 6.2183 65.0952 5.85447 66.6435 5.85447C68.1918 5.85447 69.5754 6.2183 70.7614 6.94598C71.9473 7.67365 72.8697 8.66593 73.5615 9.9559C74.2533 11.2459 74.5827 12.7012 74.5827 14.355C74.5827 16.0088 74.2533 17.4972 73.5944 18.7872L70.4319 15.5458L70.399 15.5788Z" fill="white"/>
<path d="M88.9458 22.6571C88.2211 21.9294 87.3975 21.5987 86.4092 21.5987C85.4209 21.5987 84.5644 21.9625 83.8397 22.6571C83.1149 23.3848 82.7855 24.2117 82.7855 25.204C82.7855 26.1963 83.1479 27.0562 83.8397 27.7839C84.5644 28.5116 85.4209 28.8423 86.4092 28.8423C87.3975 28.8423 88.2211 28.4785 88.9458 27.7839C89.6706 27.0562 90 26.1963 90 25.204C90 24.2117 89.6376 23.3848 88.9458 22.6571Z" fill="white"/>
</svg>
