<svg width="818" height="430" viewBox="0 0 818 430" fill="none" xmlns="http://www.w3.org/2000/svg">
<g clip-path="url(#clip0_454_175)">
<path d="M181.997 239.989C204.083 239.989 221.986 222.085 221.986 200C221.986 177.914 204.083 160.011 181.997 160.011C159.912 160.011 142.008 177.914 142.008 200C142.008 222.085 159.912 239.989 181.997 239.989Z" fill="#15E3FF"/>
<path d="M206.107 189.688C208.855 189.688 211.082 187.461 211.082 184.713C211.082 181.966 208.855 179.739 206.107 179.739C203.36 179.739 201.133 181.966 201.133 184.713C201.133 187.461 203.36 189.688 206.107 189.688Z" fill="white"/>
<mask id="mask0_454_175" style="mask-type:luminance" maskUnits="userSpaceOnUse" x="201" y="179" width="11" height="11">
<path d="M206.107 189.688C208.855 189.688 211.082 187.461 211.082 184.713C211.082 181.966 208.855 179.739 206.107 179.739C203.36 179.739 201.133 181.966 201.133 184.713C201.133 187.461 203.36 189.688 206.107 189.688Z" fill="white"/>
</mask>
<g mask="url(#mask0_454_175)">
<path d="M208.021 187.358C210.203 187.358 211.972 185.589 211.972 183.407C211.972 181.225 210.203 179.456 208.021 179.456C205.839 179.456 204.07 181.225 204.07 183.407C204.07 185.589 205.839 187.358 208.021 187.358Z" fill="#0A0B15"/>
</g>
<path d="M196.441 197.803C199.189 197.803 201.416 195.576 201.416 192.829C201.416 190.081 199.189 187.854 196.441 187.854C193.694 187.854 191.467 190.081 191.467 192.829C191.467 195.576 193.694 197.803 196.441 197.803Z" fill="white"/>
<mask id="mask1_454_175" style="mask-type:luminance" maskUnits="userSpaceOnUse" x="191" y="187" width="11" height="11">
<path d="M196.441 197.803C199.189 197.803 201.416 195.576 201.416 192.829C201.416 190.081 199.189 187.854 196.441 187.854C193.694 187.854 191.467 190.081 191.467 192.829C191.467 195.576 193.694 197.803 196.441 197.803Z" fill="white"/>
</mask>
<g mask="url(#mask1_454_175)">
<path d="M198.355 195.468C200.537 195.468 202.306 193.699 202.306 191.517C202.306 189.335 200.537 187.566 198.355 187.566C196.173 187.566 194.404 189.335 194.404 191.517C194.404 193.699 196.173 195.468 198.355 195.468Z" fill="#0A0B15"/>
</g>
<path d="M207.468 192.589C205.703 191.778 203.469 193.655 203.959 195.532C204.098 196.065 204.855 196.193 205.159 195.74L205.303 195.543C205.874 194.727 206.556 194.215 207.462 193.81C207.969 193.586 207.964 192.813 207.468 192.589Z" fill="#0A0B15"/>
</g>
<g clip-path="url(#clip1_454_175)">
<path d="M514.002 359.995C536.091 359.995 553.997 342.088 553.997 320C553.997 297.912 536.091 280.005 514.002 280.005C491.914 280.005 474.008 297.912 474.008 320C474.008 342.088 491.914 359.995 514.002 359.995Z" fill="#15E3FF"/>
<path d="M528.444 300.637C531.192 300.637 533.419 298.41 533.419 295.662C533.419 292.914 531.192 290.687 528.444 290.687C525.696 290.687 523.469 292.914 523.469 295.662C523.469 298.41 525.696 300.637 528.444 300.637Z" fill="white"/>
<mask id="mask2_454_175" style="mask-type:luminance" maskUnits="userSpaceOnUse" x="523" y="290" width="11" height="11">
<path d="M528.444 300.637C531.192 300.637 533.419 298.41 533.419 295.662C533.419 292.914 531.192 290.687 528.444 290.687C525.696 290.687 523.469 292.914 523.469 295.662C523.469 298.41 525.696 300.637 528.444 300.637Z" fill="white"/>
</mask>
<g mask="url(#mask2_454_175)">
<path d="M530.045 298.296C532.228 298.296 533.997 296.527 533.997 294.345C533.997 292.162 532.228 290.393 530.045 290.393C527.863 290.393 526.094 292.162 526.094 294.345C526.094 296.527 527.863 298.296 530.045 298.296Z" fill="#0A0B15"/>
</g>
<path d="M516.827 305.57C519.575 305.57 521.802 303.342 521.802 300.594C521.802 297.847 519.575 295.619 516.827 295.619C514.079 295.619 511.852 297.847 511.852 300.594C511.852 303.342 514.079 305.57 516.827 305.57Z" fill="white"/>
<mask id="mask3_454_175" style="mask-type:luminance" maskUnits="userSpaceOnUse" x="511" y="295" width="11" height="11">
<path d="M516.827 305.57C519.575 305.57 521.802 303.342 521.802 300.594C521.802 297.847 519.575 295.619 516.827 295.619C514.079 295.619 511.852 297.847 511.852 300.594C511.852 303.342 514.079 305.57 516.827 305.57Z" fill="white"/>
</mask>
<g mask="url(#mask3_454_175)">
<path d="M518.428 303.229C520.61 303.229 522.38 301.46 522.38 299.277C522.38 297.095 520.61 295.326 518.428 295.326C516.246 295.326 514.477 297.095 514.477 299.277C514.477 301.46 516.246 303.229 518.428 303.229Z" fill="#0A0B15"/>
</g>
<path d="M523.079 305.047C524.529 306.338 527.217 305.197 527.297 303.256C527.323 302.706 526.63 302.365 526.209 302.706L526.017 302.856C525.233 303.469 524.428 303.762 523.446 303.879C522.897 303.943 522.679 304.685 523.084 305.042L523.079 305.047Z" fill="#0A0B15"/>
</g>
<g clip-path="url(#clip2_454_175)">
<path d="M230.038 250C213.469 278.698 223.302 315.393 251.999 331.962C280.697 348.53 317.392 338.698 333.961 310C350.529 281.302 340.697 244.607 311.999 228.038C283.302 211.47 246.606 221.302 230.038 250Z" fill="#FF41FF"/>
<path d="M250.801 313.19C248.74 316.76 249.963 321.325 253.533 323.386C257.103 325.447 261.668 324.224 263.729 320.654C265.79 317.084 264.567 312.519 260.997 310.458C257.427 308.397 252.862 309.62 250.801 313.19Z" fill="white"/>
<mask id="mask4_454_175" style="mask-type:luminance" maskUnits="userSpaceOnUse" x="249" y="309" width="16" height="16">
<path d="M250.801 313.19C248.74 316.76 249.963 321.325 253.533 323.386C257.103 325.447 261.668 324.224 263.729 320.654C265.79 317.084 264.567 312.519 260.997 310.458C257.427 308.397 252.862 309.62 250.801 313.19Z" fill="white"/>
</mask>
<g mask="url(#mask4_454_175)">
<path d="M249.356 314.7C247.719 317.536 248.691 321.161 251.526 322.798C254.361 324.435 257.987 323.464 259.624 320.628C261.261 317.793 260.289 314.168 257.454 312.531C254.619 310.894 250.993 311.865 249.356 314.7Z" fill="#0A0B15"/>
</g>
<path d="M267.192 303.727C265.13 307.297 266.354 311.862 269.924 313.923C273.494 315.985 278.058 314.761 280.12 311.191C282.181 307.621 280.958 303.057 277.388 300.995C273.818 298.934 269.253 300.157 267.192 303.727Z" fill="white"/>
<mask id="mask5_454_175" style="mask-type:luminance" maskUnits="userSpaceOnUse" x="266" y="299" width="16" height="16">
<path d="M267.192 303.727C265.13 307.297 266.354 311.862 269.924 313.923C273.494 315.985 278.058 314.761 280.12 311.191C282.181 307.621 280.958 303.057 277.388 300.995C273.818 298.934 269.253 300.157 267.192 303.727Z" fill="white"/>
</mask>
<g mask="url(#mask5_454_175)">
<path d="M265.757 305.235C264.12 308.07 265.091 311.696 267.926 313.333C270.762 314.97 274.387 313.998 276.024 311.163C277.661 308.328 276.69 304.702 273.854 303.065C271.019 301.428 267.394 302.4 265.757 305.235Z" fill="#0A0B15"/>
</g>
<path d="M263.522 301.97C261.127 300.31 257.336 302.509 257.574 305.409C257.636 306.23 258.723 306.617 259.297 306.025L259.556 305.768C260.612 304.706 261.751 304.125 263.195 303.768C264.003 303.569 264.197 302.434 263.522 301.97Z" fill="#0A0B15"/>
</g>
<g clip-path="url(#clip3_454_175)">
<path d="M449.486 60.4344C504.478 92.1844 523.32 162.503 491.57 217.496C459.82 272.489 389.501 291.33 334.509 259.58C279.516 227.83 260.674 157.512 292.424 102.519C324.174 47.5263 394.493 28.6844 449.486 60.4344Z" fill="#5057FF"/>
<path d="M379.385 204.218C386.22 208.174 388.553 216.922 384.597 223.756C380.641 230.591 371.893 232.925 365.059 228.969C358.224 225.012 355.891 216.265 359.847 209.43C363.803 202.595 372.551 200.262 379.385 204.218Z" fill="white"/>
<mask id="mask6_454_175" style="mask-type:luminance" maskUnits="userSpaceOnUse" x="357" y="202" width="30" height="29">
<path d="M379.385 204.218C386.22 208.174 388.553 216.922 384.597 223.757C380.641 230.591 371.893 232.925 365.059 228.969C358.224 225.012 355.891 216.265 359.847 209.43C363.803 202.595 372.551 200.262 379.385 204.218Z" fill="white"/>
</mask>
<g mask="url(#mask6_454_175)">
<path d="M384.152 208.362C389.58 211.504 391.434 218.452 388.292 223.88C385.149 229.308 378.202 231.162 372.774 228.019C367.346 224.877 365.492 217.93 368.634 212.502C371.777 207.074 378.724 205.22 384.152 208.362Z" fill="#0A0B15"/>
</g>
<path d="M343.124 202.948C349.958 206.904 352.292 215.652 348.335 222.486C344.379 229.321 335.632 231.655 328.797 227.699C321.962 223.742 319.629 214.995 323.585 208.16C327.541 201.325 336.289 198.992 343.124 202.948Z" fill="white"/>
<mask id="mask7_454_175" style="mask-type:luminance" maskUnits="userSpaceOnUse" x="321" y="201" width="30" height="29">
<path d="M343.124 202.948C349.958 206.904 352.292 215.652 348.336 222.487C344.379 229.321 335.632 231.655 328.797 227.699C321.962 223.742 319.629 214.995 323.585 208.16C327.541 201.325 336.289 198.992 343.124 202.948Z" fill="white"/>
</mask>
<g mask="url(#mask7_454_175)">
<path d="M347.91 207.1C353.338 210.242 355.191 217.19 352.049 222.618C348.907 228.046 341.96 229.899 336.532 226.757C331.104 223.615 329.25 216.667 332.392 211.239C335.534 205.811 342.482 203.958 347.91 207.1Z" fill="#0A0B15"/>
</g>
<path d="M359.108 235.824C359.042 237.782 356.435 239.283 353.285 239.177C350.135 239.071 347.635 237.397 347.701 235.439C347.767 233.481 350.374 231.979 353.524 232.085C356.674 232.192 359.174 233.865 359.108 235.824Z" fill="#0A0B15"/>
</g>
<circle cx="703" cy="315" r="115" fill="#FF41FF"/>
<g clip-path="url(#clip4_454_175)">
<path d="M541 220C574.137 220 601 193.137 601 160C601 126.863 574.137 100 541 100C507.863 100 481 126.863 481 160C481 193.137 507.863 220 541 220Z" fill="#FF7425"/>
<path d="M585.343 170.424C589.465 170.424 592.807 167.082 592.807 162.96C592.807 158.838 589.465 155.496 585.343 155.496C581.221 155.496 577.879 158.838 577.879 162.96C577.879 167.082 581.221 170.424 585.343 170.424Z" fill="white"/>
<mask id="mask8_454_175" style="mask-type:luminance" maskUnits="userSpaceOnUse" x="577" y="155" width="16" height="16">
<path d="M585.343 170.424C589.465 170.424 592.807 167.082 592.807 162.96C592.807 158.838 589.465 155.496 585.343 155.496C581.221 155.496 577.879 158.838 577.879 162.96C577.879 167.082 581.221 170.424 585.343 170.424Z" fill="white"/>
</mask>
<g mask="url(#mask8_454_175)">
<path d="M587.373 170.92C590.647 170.92 593.301 168.266 593.301 164.992C593.301 161.718 590.647 159.064 587.373 159.064C584.099 159.064 581.445 161.718 581.445 164.992C581.445 168.266 584.099 170.92 587.373 170.92Z" fill="#0A0B15"/>
</g>
<path d="M568.952 160.96C573.075 160.96 576.416 157.618 576.416 153.496C576.416 149.374 573.075 146.032 568.952 146.032C564.83 146.032 561.488 149.374 561.488 153.496C561.488 157.618 564.83 160.96 568.952 160.96Z" fill="white"/>
<mask id="mask9_454_175" style="mask-type:luminance" maskUnits="userSpaceOnUse" x="561" y="146" width="16" height="15">
<path d="M568.952 160.96C573.075 160.96 576.416 157.618 576.416 153.496C576.416 149.374 573.075 146.032 568.952 146.032C564.83 146.032 561.488 149.374 561.488 153.496C561.488 157.618 564.83 160.96 568.952 160.96Z" fill="white"/>
</mask>
<g mask="url(#mask9_454_175)">
<path d="M570.975 161.448C574.249 161.448 576.903 158.794 576.903 155.52C576.903 152.246 574.249 149.592 570.975 149.592C567.701 149.592 565.047 152.246 565.047 155.52C565.047 158.794 567.701 161.448 570.975 161.448Z" fill="#0A0B15"/>
</g>
<path d="M569.265 165.016C569.025 167.92 572.825 170.104 575.217 168.448C575.897 167.984 575.689 166.848 574.889 166.648L574.537 166.552C573.089 166.168 572.017 165.472 570.985 164.4C570.409 163.8 569.329 164.2 569.265 165.016Z" fill="#0A0B15"/>
</g>
<g clip-path="url(#clip5_454_175)">
<path d="M127.424 127.426C150.856 103.995 150.856 66.005 127.424 42.5736C103.993 19.1421 66.0031 19.1421 42.5716 42.5736C19.1402 66.005 19.1402 103.995 42.5716 127.426C66.0031 150.858 103.993 150.858 127.424 127.426Z" fill="#5057FF"/>
<path d="M123.724 61.0158C126.639 58.1009 126.639 53.3749 123.724 50.4601C120.809 47.5452 116.083 47.5452 113.168 50.4601C110.254 53.3749 110.254 58.1009 113.168 61.0158C116.083 63.9306 120.809 63.9306 123.724 61.0158Z" fill="white"/>
<mask id="mask10_454_175" style="mask-type:luminance" maskUnits="userSpaceOnUse" x="110" y="48" width="16" height="16">
<path d="M123.724 61.0158C126.639 58.1009 126.639 53.3749 123.724 50.4601C120.809 47.5452 116.083 47.5452 113.168 50.4601C110.254 53.3749 110.254 58.1009 113.168 61.0158C116.083 63.9306 120.809 63.9306 123.724 61.0158Z" fill="white"/>
</mask>
<g mask="url(#mask10_454_175)">
<path d="M125.511 59.9307C127.826 57.6157 127.826 53.8623 125.511 51.5473C123.196 49.2322 119.442 49.2323 117.127 51.5473C114.812 53.8623 114.812 57.6157 117.127 59.9307C119.442 62.2458 123.196 62.2458 125.511 59.9307Z" fill="#0A0B15"/>
</g>
<path d="M105.443 65.9136C108.358 62.9987 108.358 58.2728 105.443 55.3579C102.528 52.443 97.8021 52.443 94.8872 55.3579C91.9723 58.2728 91.9723 62.9987 94.8872 65.9136C97.8021 68.8285 102.528 68.8285 105.443 65.9136Z" fill="white"/>
<mask id="mask11_454_175" style="mask-type:luminance" maskUnits="userSpaceOnUse" x="92" y="53" width="16" height="16">
<path d="M105.443 65.9136C108.358 62.9987 108.358 58.2728 105.443 55.3579C102.528 52.443 97.8021 52.443 94.8872 55.3579C91.9723 58.2728 91.9723 62.9987 94.8872 65.9136C97.8021 68.8285 102.528 68.8285 105.443 65.9136Z" fill="white"/>
</mask>
<g mask="url(#mask11_454_175)">
<path d="M107.218 64.8284C109.533 62.5134 109.533 58.76 107.218 56.445C104.903 54.13 101.149 54.13 98.8343 56.445C96.5193 58.76 96.5193 62.5134 98.8343 64.8284C101.149 67.1435 104.903 67.1435 107.218 64.8284Z" fill="#0A0B15"/>
</g>
<path d="M108.532 68.5607C110.416 70.7839 114.647 69.6412 115.167 66.7788C115.32 65.9699 114.37 65.3137 113.663 65.738L113.346 65.919C112.05 66.6713 110.8 66.9372 109.313 66.9089C108.481 66.892 108 67.9385 108.532 68.5607Z" fill="#0A0B15"/>
</g>
<path d="M759.163 243.219C765.997 247.175 768.331 255.923 764.374 262.757C760.418 269.592 751.671 271.926 744.836 267.97C738.001 264.014 735.668 255.266 739.624 248.431C743.58 241.596 752.328 239.263 759.163 243.219Z" fill="white"/>
<mask id="mask12_454_175" style="mask-type:luminance" maskUnits="userSpaceOnUse" x="737" y="241" width="30" height="29">
<path d="M759.163 243.219C765.997 247.175 768.331 255.923 764.375 262.758C760.418 269.592 751.671 271.926 744.836 267.97C738.001 264.013 735.668 255.266 739.624 248.431C743.58 241.597 752.328 239.263 759.163 243.219Z" fill="white"/>
</mask>
<g mask="url(#mask12_454_175)">
<path d="M763.929 247.364C769.358 250.506 771.211 257.453 768.069 262.881C764.927 268.309 757.979 270.163 752.551 267.021C747.123 263.879 745.27 256.931 748.412 251.503C751.554 246.075 758.501 244.222 763.929 247.364Z" fill="#0A0B15"/>
</g>
<path d="M722.901 241.949C729.736 245.905 732.069 254.653 728.113 261.487C724.157 268.322 715.409 270.656 708.574 266.7C701.74 262.744 699.406 253.996 703.363 247.161C707.319 240.326 716.066 237.993 722.901 241.949Z" fill="white"/>
<mask id="mask13_454_175" style="mask-type:luminance" maskUnits="userSpaceOnUse" x="701" y="240" width="30" height="29">
<path d="M722.901 241.949C729.736 245.905 732.069 254.653 728.113 261.488C724.157 268.322 715.409 270.656 708.574 266.7C701.74 262.743 699.406 253.996 703.362 247.161C707.319 240.327 716.066 237.993 722.901 241.949Z" fill="white"/>
</mask>
<g mask="url(#mask13_454_175)">
<path d="M727.687 246.101C733.115 249.243 734.969 256.191 731.827 261.619C728.685 267.047 721.737 268.9 716.309 265.758C710.881 262.616 709.028 255.669 712.17 250.24C715.312 244.812 722.259 242.959 727.687 246.101Z" fill="#0A0B15"/>
</g>
<path d="M738.885 274.825C738.819 276.783 736.212 278.285 733.062 278.178C729.912 278.072 727.412 276.399 727.478 274.44C727.544 272.482 730.151 270.98 733.301 271.087C736.451 271.193 738.951 272.866 738.885 274.825Z" fill="#0A0B15"/>
<defs>
<clipPath id="clip0_454_175">
<rect width="80" height="80" fill="white" transform="translate(141.998 160)"/>
</clipPath>
<clipPath id="clip1_454_175">
<rect width="80" height="80" fill="white" transform="translate(474 280)"/>
</clipPath>
<clipPath id="clip2_454_175">
<rect width="120" height="120" fill="white" transform="translate(363.961 258.038) rotate(120)"/>
</clipPath>
<clipPath id="clip3_454_175">
<rect width="230" height="230" fill="white" transform="matrix(1 0 0 -1 276.998 275)"/>
</clipPath>
<clipPath id="clip4_454_175">
<rect width="120" height="120" fill="white" transform="translate(481 100)"/>
</clipPath>
<clipPath id="clip5_454_175">
<rect width="120" height="120" fill="white" transform="translate(0.146484 85) rotate(-45)"/>
</clipPath>
</defs>
</svg>
