<svg width="550" height="346" viewBox="0 0 550 346" fill="none" xmlns="http://www.w3.org/2000/svg">
<g clip-path="url(#clip0_414_165)">
<path d="M17.9991 155.989C40.0846 155.989 57.9884 138.085 57.9884 116C57.9884 93.9145 40.0846 76.0106 17.9991 76.0106C-4.0864 76.0106 -21.9902 93.9145 -21.9902 116C-21.9902 138.085 -4.0864 155.989 17.9991 155.989Z" fill="#15E3FF"/>
<path d="M42.1094 105.688C44.8569 105.688 47.0841 103.461 47.0841 100.713C47.0841 97.966 44.8569 95.7388 42.1094 95.7388C39.362 95.7388 37.1348 97.966 37.1348 100.713C37.1348 103.461 39.362 105.688 42.1094 105.688Z" fill="white"/>
<mask id="mask0_414_165" style="mask-type:luminance" maskUnits="userSpaceOnUse" x="37" y="95" width="11" height="11">
<path d="M42.1094 105.688C44.8569 105.688 47.0841 103.461 47.0841 100.713C47.0841 97.966 44.8569 95.7388 42.1094 95.7388C39.362 95.7388 37.1348 97.966 37.1348 100.713C37.1348 103.461 39.362 105.688 42.1094 105.688Z" fill="white"/>
</mask>
<g mask="url(#mask0_414_165)">
<path d="M44.0232 103.358C46.2053 103.358 47.9742 101.589 47.9742 99.4071C47.9742 97.2251 46.2053 95.4562 44.0232 95.4562C41.8412 95.4562 40.0723 97.2251 40.0723 99.4071C40.0723 101.589 41.8412 103.358 44.0232 103.358Z" fill="#0A0B15"/>
</g>
<path d="M32.4434 113.803C35.1909 113.803 37.4181 111.576 37.4181 108.829C37.4181 106.081 35.1909 103.854 32.4434 103.854C29.696 103.854 27.4688 106.081 27.4688 108.829C27.4688 111.576 29.696 113.803 32.4434 113.803Z" fill="white"/>
<mask id="mask1_414_165" style="mask-type:luminance" maskUnits="userSpaceOnUse" x="27" y="103" width="11" height="11">
<path d="M32.4434 113.803C35.1909 113.803 37.4181 111.576 37.4181 108.829C37.4181 106.081 35.1909 103.854 32.4434 103.854C29.696 103.854 27.4688 106.081 27.4688 108.829C27.4688 111.576 29.696 113.803 32.4434 113.803Z" fill="white"/>
</mask>
<g mask="url(#mask1_414_165)">
<path d="M34.3572 111.468C36.5392 111.468 38.3081 109.699 38.3081 107.517C38.3081 105.335 36.5392 103.566 34.3572 103.566C32.1751 103.566 30.4062 105.335 30.4062 107.517C30.4062 109.699 32.1751 111.468 34.3572 111.468Z" fill="#0A0B15"/>
</g>
<path d="M43.4697 108.589C41.7049 107.778 39.4708 109.655 39.9614 111.532C40.1 112.065 40.8571 112.193 41.161 111.74L41.305 111.543C41.8755 110.727 42.558 110.215 43.4644 109.81C43.9709 109.586 43.9656 108.813 43.4697 108.589Z" fill="#0A0B15"/>
</g>
<g clip-path="url(#clip1_414_165)">
<path d="M350.001 275.995C372.089 275.995 389.995 258.088 389.995 236C389.995 213.912 372.089 196.005 350.001 196.005C327.912 196.005 310.006 213.912 310.006 236C310.006 258.088 327.912 275.995 350.001 275.995Z" fill="#15E3FF"/>
<path d="M364.442 216.637C367.19 216.637 369.417 214.41 369.417 211.662C369.417 208.914 367.19 206.687 364.442 206.687C361.694 206.687 359.467 208.914 359.467 211.662C359.467 214.41 361.694 216.637 364.442 216.637Z" fill="white"/>
<mask id="mask2_414_165" style="mask-type:luminance" maskUnits="userSpaceOnUse" x="359" y="206" width="11" height="11">
<path d="M364.442 216.637C367.19 216.637 369.417 214.41 369.417 211.662C369.417 208.914 367.19 206.687 364.442 206.687C361.694 206.687 359.467 208.914 359.467 211.662C359.467 214.41 361.694 216.637 364.442 216.637Z" fill="white"/>
</mask>
<g mask="url(#mask2_414_165)">
<path d="M366.041 214.296C368.224 214.296 369.993 212.527 369.993 210.345C369.993 208.162 368.224 206.393 366.041 206.393C363.859 206.393 362.09 208.162 362.09 210.345C362.09 212.527 363.859 214.296 366.041 214.296Z" fill="#0A0B15"/>
</g>
<path d="M352.827 221.57C355.575 221.57 357.802 219.342 357.802 216.594C357.802 213.847 355.575 211.619 352.827 211.619C350.079 211.619 347.852 213.847 347.852 216.594C347.852 219.342 350.079 221.57 352.827 221.57Z" fill="white"/>
<mask id="mask3_414_165" style="mask-type:luminance" maskUnits="userSpaceOnUse" x="347" y="211" width="11" height="11">
<path d="M352.827 221.57C355.575 221.57 357.802 219.342 357.802 216.594C357.802 213.847 355.575 211.619 352.827 211.619C350.079 211.619 347.852 213.847 347.852 216.594C347.852 219.342 350.079 221.57 352.827 221.57Z" fill="white"/>
</mask>
<g mask="url(#mask3_414_165)">
<path d="M354.426 219.229C356.608 219.229 358.378 217.46 358.378 215.277C358.378 213.095 356.608 211.326 354.426 211.326C352.244 211.326 350.475 213.095 350.475 215.277C350.475 217.46 352.244 219.229 354.426 219.229Z" fill="#0A0B15"/>
</g>
<path d="M359.08 221.047C360.531 222.338 363.219 221.197 363.299 219.256C363.325 218.706 362.632 218.365 362.211 218.706L362.019 218.856C361.235 219.469 360.43 219.762 359.448 219.879C358.899 219.943 358.681 220.685 359.086 221.042L359.08 221.047Z" fill="#0A0B15"/>
</g>
<g clip-path="url(#clip2_414_165)">
<path d="M66.0379 166C49.4693 194.698 59.3019 231.393 87.9994 247.962C116.697 264.53 153.392 254.698 169.961 226C186.529 197.302 176.697 160.607 147.999 144.038C119.302 127.47 82.6064 137.302 66.0379 166Z" fill="#FF41FF"/>
<path d="M86.8009 229.19C84.7398 232.76 85.963 237.325 89.5329 239.386C93.1029 241.447 97.6678 240.224 99.7289 236.654C101.79 233.084 100.567 228.519 96.9969 226.458C93.427 224.397 88.862 225.62 86.8009 229.19Z" fill="white"/>
<mask id="mask4_414_165" style="mask-type:luminance" maskUnits="userSpaceOnUse" x="85" y="225" width="16" height="16">
<path d="M86.8009 229.19C84.7398 232.76 85.963 237.325 89.5329 239.386C93.1029 241.447 97.6678 240.224 99.7289 236.654C101.79 233.084 100.567 228.519 96.9969 226.458C93.427 224.397 88.862 225.62 86.8009 229.19Z" fill="white"/>
</mask>
<g mask="url(#mask4_414_165)">
<path d="M85.3563 230.7C83.7193 233.536 84.6908 237.161 87.5261 238.798C90.3614 240.435 93.9869 239.464 95.6239 236.628C97.2609 233.793 96.2894 230.168 93.4541 228.531C90.6188 226.894 86.9933 227.865 85.3563 230.7Z" fill="#0A0B15"/>
</g>
<path d="M103.192 219.727C101.13 223.297 102.354 227.862 105.924 229.923C109.494 231.985 114.058 230.761 116.12 227.191C118.181 223.621 116.958 219.057 113.388 216.995C109.818 214.934 105.253 216.157 103.192 219.727Z" fill="white"/>
<mask id="mask5_414_165" style="mask-type:luminance" maskUnits="userSpaceOnUse" x="102" y="215" width="16" height="16">
<path d="M103.192 219.727C101.13 223.297 102.354 227.862 105.924 229.923C109.494 231.985 114.058 230.761 116.12 227.191C118.181 223.621 116.958 219.057 113.388 216.995C109.818 214.934 105.253 216.157 103.192 219.727Z" fill="white"/>
</mask>
<g mask="url(#mask5_414_165)">
<path d="M101.757 221.235C100.12 224.07 101.091 227.696 103.926 229.333C106.762 230.97 110.387 229.998 112.024 227.163C113.661 224.328 112.69 220.702 109.854 219.065C107.019 217.428 103.394 218.4 101.757 221.235Z" fill="#0A0B15"/>
</g>
<path d="M99.522 217.97C97.127 216.31 93.3356 218.509 93.5738 221.409C93.6356 222.23 94.7234 222.617 95.2966 222.025L95.5558 221.768C96.6123 220.706 97.7511 220.125 99.1955 219.768C100.003 219.569 100.197 218.434 99.522 217.97Z" fill="#0A0B15"/>
</g>
<g clip-path="url(#clip3_414_165)">
<path d="M285.488 -23.5656C340.48 8.18443 359.322 78.5033 327.572 133.496C295.822 188.489 225.503 207.33 170.511 175.58C115.518 143.83 96.676 73.5116 128.426 18.5189C160.176 -36.4737 230.495 -55.3156 285.488 -23.5656Z" fill="#5057FF"/>
<path d="M215.385 120.218C222.22 124.174 224.553 132.922 220.597 139.756C216.641 146.591 207.893 148.925 201.059 144.969C194.224 141.012 191.891 132.265 195.847 125.43C199.803 118.595 208.551 116.262 215.385 120.218Z" fill="white"/>
<mask id="mask6_414_165" style="mask-type:luminance" maskUnits="userSpaceOnUse" x="193" y="118" width="30" height="29">
<path d="M215.385 120.218C222.22 124.174 224.553 132.922 220.597 139.757C216.641 146.591 207.893 148.925 201.059 144.969C194.224 141.012 191.891 132.265 195.847 125.43C199.803 118.595 208.551 116.262 215.385 120.218Z" fill="white"/>
</mask>
<g mask="url(#mask6_414_165)">
<path d="M220.154 124.362C225.582 127.504 227.435 134.452 224.293 139.88C221.151 145.308 214.204 147.162 208.776 144.019C203.348 140.877 201.494 133.93 204.636 128.502C207.778 123.074 214.726 121.22 220.154 124.362Z" fill="#0A0B15"/>
</g>
<path d="M179.126 118.948C185.96 122.904 188.294 131.652 184.337 138.486C180.381 145.321 171.634 147.655 164.799 143.699C157.964 139.742 155.631 130.995 159.587 124.16C163.543 117.325 172.291 114.992 179.126 118.948Z" fill="white"/>
<mask id="mask7_414_165" style="mask-type:luminance" maskUnits="userSpaceOnUse" x="157" y="117" width="30" height="29">
<path d="M179.126 118.948C185.96 122.904 188.294 131.652 184.337 138.487C180.381 145.321 171.634 147.655 164.799 143.699C157.964 139.742 155.631 130.995 159.587 124.16C163.543 117.325 172.291 114.992 179.126 118.948Z" fill="white"/>
</mask>
<g mask="url(#mask7_414_165)">
<path d="M183.91 123.1C189.338 126.242 191.191 133.19 188.049 138.618C184.907 144.046 177.96 145.899 172.532 142.757C167.104 139.615 165.25 132.667 168.392 127.239C171.534 121.811 178.482 119.958 183.91 123.1Z" fill="#0A0B15"/>
</g>
<path d="M195.108 151.824C195.042 153.782 192.435 155.283 189.285 155.177C186.135 155.071 183.635 153.397 183.701 151.439C183.767 149.481 186.374 147.979 189.524 148.085C192.674 148.192 195.174 149.865 195.108 151.824Z" fill="#0A0B15"/>
</g>
<circle cx="539" cy="231" r="115" fill="#FF41FF"/>
<g clip-path="url(#clip4_414_165)">
<path d="M377 136C410.137 136 437 109.137 437 76C437 42.8629 410.137 16 377 16C343.863 16 317 42.8629 317 76C317 109.137 343.863 136 377 136Z" fill="#FF7425"/>
<path d="M421.343 86.424C425.465 86.424 428.807 83.0822 428.807 78.96C428.807 74.8377 425.465 71.496 421.343 71.496C417.221 71.496 413.879 74.8377 413.879 78.96C413.879 83.0822 417.221 86.424 421.343 86.424Z" fill="white"/>
<mask id="mask8_414_165" style="mask-type:luminance" maskUnits="userSpaceOnUse" x="413" y="71" width="16" height="16">
<path d="M421.343 86.424C425.465 86.424 428.807 83.0822 428.807 78.96C428.807 74.8377 425.465 71.496 421.343 71.496C417.221 71.496 413.879 74.8377 413.879 78.96C413.879 83.0822 417.221 86.424 421.343 86.424Z" fill="white"/>
</mask>
<g mask="url(#mask8_414_165)">
<path d="M423.373 86.92C426.647 86.92 429.301 84.2659 429.301 80.992C429.301 77.718 426.647 75.064 423.373 75.064C420.099 75.064 417.445 77.718 417.445 80.992C417.445 84.2659 420.099 86.92 423.373 86.92Z" fill="#0A0B15"/>
</g>
<path d="M404.952 76.96C409.075 76.96 412.416 73.6182 412.416 69.496C412.416 65.3737 409.075 62.032 404.952 62.032C400.83 62.032 397.488 65.3737 397.488 69.496C397.488 73.6182 400.83 76.96 404.952 76.96Z" fill="white"/>
<mask id="mask9_414_165" style="mask-type:luminance" maskUnits="userSpaceOnUse" x="397" y="62" width="16" height="15">
<path d="M404.952 76.96C409.075 76.96 412.416 73.6182 412.416 69.496C412.416 65.3737 409.075 62.032 404.952 62.032C400.83 62.032 397.488 65.3737 397.488 69.496C397.488 73.6182 400.83 76.96 404.952 76.96Z" fill="white"/>
</mask>
<g mask="url(#mask9_414_165)">
<path d="M406.975 77.448C410.249 77.448 412.903 74.794 412.903 71.52C412.903 68.2461 410.249 65.592 406.975 65.592C403.701 65.592 401.047 68.2461 401.047 71.52C401.047 74.794 403.701 77.448 406.975 77.448Z" fill="#0A0B15"/>
</g>
<path d="M405.265 81.016C405.025 83.92 408.825 86.104 411.217 84.448C411.897 83.984 411.689 82.848 410.889 82.648L410.537 82.552C409.089 82.168 408.017 81.472 406.985 80.4C406.409 79.8 405.329 80.2 405.265 81.016Z" fill="#0A0B15"/>
</g>
<defs>
<clipPath id="clip0_414_165">
<rect width="80" height="80" fill="white" transform="translate(-22 76)"/>
</clipPath>
<clipPath id="clip1_414_165">
<rect width="80" height="80" fill="white" transform="translate(310 196)"/>
</clipPath>
<clipPath id="clip2_414_165">
<rect width="120" height="120" fill="white" transform="translate(199.961 174.038) rotate(120)"/>
</clipPath>
<clipPath id="clip3_414_165">
<rect width="230" height="230" fill="white" transform="matrix(1 0 0 -1 113 191)"/>
</clipPath>
<clipPath id="clip4_414_165">
<rect width="120" height="120" fill="white" transform="translate(317 16)"/>
</clipPath>
</defs>
</svg>
