<svg width="25" height="20" viewBox="0 0 25 20" fill="none" xmlns="http://www.w3.org/2000/svg">
<path d="M1.65871 8.60997C8.13783 5.78776 12.4572 3.92713 14.617 3.02806C20.7905 0.461066 22.0718 0.0152357 22.9086 0.000131604C23.0926 -0.00281976 23.5023 0.0426656 23.7697 0.25881C23.9919 0.4411 24.0544 0.687627 24.0856 0.860716C24.1134 1.03363 24.1516 1.42773 24.1204 1.73536C23.787 5.24923 22.3391 13.7762 21.603 17.712C21.294 19.3772 20.6794 19.9356 20.0857 19.9901C18.794 20.1088 17.8148 19.1373 16.5649 18.3182C14.61 17.0359 13.5058 16.238 11.6066 14.987C9.41213 13.5412 10.8357 12.7464 12.0857 11.4478C12.4121 11.1079 18.0996 5.93603 18.2072 5.46693C18.2211 5.40825 18.235 5.1895 18.103 5.07423C17.9746 4.9586 17.7836 4.99819 17.6447 5.02944C17.4468 5.07388 14.3253 7.13914 8.26977 11.2249C7.38436 11.8339 6.58229 12.1308 5.86007 12.1151C5.06841 12.0981 3.54064 11.6665 2.40523 11.2978C1.01636 10.8454 -0.0912757 10.6061 0.00594583 9.83773C0.0545566 9.43774 0.606636 9.02836 1.65871 8.60997Z" fill="#0A0B15"/>
</svg>
