<svg width="1137" height="572" viewBox="0 0 1137 572" fill="none" xmlns="http://www.w3.org/2000/svg">
<path d="M277 383.1V557.7C277 561.9 275.7 565.3 273.1 567.9C270.5 570.5 267.1 571.8 262.9 571.8C258.7 571.8 255.3 570.5 252.7 567.9C250.1 565.3 248.8 561.9 248.8 557.7L250.3 432.3L250 399H249.4L247.3 432.3L237.1 557.4C236.7 561.6 235.2 565.1 232.6 567.9C230.2 570.5 226.9 571.8 222.7 571.8C218.5 571.8 215.2 570.5 212.8 567.9C210.4 565.1 209 561.6 208.6 557.4L198.7 432.3L196.6 399H196L195.7 432.3L197.2 557.7C197.2 561.9 195.9 565.3 193.3 567.9C190.7 570.5 187.3 571.8 183.1 571.8C178.9 571.8 175.5 570.5 172.9 567.9C170.3 565.3 169 561.9 169 557.7V383.1C169 374.9 171.1 368.7 175.3 364.5C179.5 360.3 185.8 358.2 194.2 358.2C202 358.2 207.9 360.2 211.9 364.2C215.9 368.2 218.1 374.5 218.5 383.1L221.8 484.8L223 513H223.6L224.5 484.8L227.5 383.1C227.9 374.5 230.1 368.2 234.1 364.2C238.1 360.2 244 358.2 251.8 358.2C260.2 358.2 266.5 360.3 270.7 364.5C274.9 368.7 277 374.9 277 383.1Z" fill="white"/>
<path d="M317.464 360C321.464 360 324.664 361.3 327.064 363.9C329.664 366.3 330.964 369.5 330.964 373.5C330.964 377.5 329.664 380.8 327.064 383.4C324.664 385.8 321.464 387 317.464 387H311.164L312.964 383.4V452.4L312.364 448.8H314.464C318.464 448.8 321.664 450.1 324.064 452.7C326.664 455.1 327.964 458.3 327.964 462.3C327.964 466.3 326.664 469.6 324.064 472.2C321.664 474.6 318.464 475.8 314.464 475.8H312.364L312.964 472.2V546.6L311.764 543H315.964C319.964 543 323.164 544.3 325.564 546.9C328.164 549.3 329.464 552.5 329.464 556.5C329.464 560.5 328.164 563.8 325.564 566.4C323.164 568.8 319.964 570 315.964 570H296.464C292.464 570 289.164 568.8 286.564 566.4C284.164 563.8 282.964 560.5 282.964 556.5V373.5C282.964 369.5 284.164 366.3 286.564 363.9C289.164 361.3 292.464 360 296.464 360H317.464Z" fill="white"/>
<path d="M386.35 360C390.35 360 393.55 361.3 395.95 363.9C398.55 366.3 399.85 369.5 399.85 373.5C399.85 377.5 398.55 380.8 395.95 383.4C393.55 385.8 390.35 387 386.35 387H381.85V556.8C381.85 561.4 380.45 565.1 377.65 567.9C375.05 570.5 371.45 571.8 366.85 571.8C362.25 571.8 358.55 570.5 355.75 567.9C353.15 565.1 351.85 561.4 351.85 556.8V387H347.35C343.35 387 340.05 385.8 337.45 383.4C335.05 380.8 333.85 377.5 333.85 373.5C333.85 369.5 335.05 366.3 337.45 363.9C340.05 361.3 343.35 360 347.35 360H386.35Z" fill="white"/>
<path d="M451.585 377.4L465.385 554.7C465.785 559.5 464.486 563.6 461.486 567C458.486 570.2 454.385 571.8 449.185 571.8C444.385 571.8 440.585 570.3 437.785 567.3C434.985 564.3 433.485 560.4 433.285 555.6L431.785 516.3L435.685 519.9H419.486L423.385 516.3L421.885 557.1C421.685 561.5 420.285 565.1 417.685 567.9C415.285 570.5 411.886 571.8 407.486 571.8C403.086 571.8 399.385 570.4 396.385 567.6C393.585 564.6 392.385 560.8 392.785 556.2L406.885 377.4C407.285 371 409.385 366.2 413.185 363C417.185 359.8 422.585 358.2 429.385 358.2C436.185 358.2 441.485 359.8 445.285 363C449.085 366.2 451.185 371 451.585 377.4ZM423.986 496.5L420.685 492.9H433.885L431.185 496.5L428.785 426.3L427.885 393H427.285L426.385 426.3L423.986 496.5Z" fill="white"/>
<path d="M577.586 383.1V557.7C577.586 561.9 576.285 565.3 573.685 567.9C571.085 570.5 567.685 571.8 563.485 571.8C559.285 571.8 555.885 570.5 553.285 567.9C550.685 565.3 549.385 561.9 549.385 557.7L550.885 432.3L550.586 399H549.985L547.885 432.3L537.685 557.4C537.285 561.6 535.785 565.1 533.185 567.9C530.785 570.5 527.486 571.8 523.286 571.8C519.086 571.8 515.786 570.5 513.385 567.9C510.985 565.1 509.585 561.6 509.185 557.4L499.285 432.3L497.185 399H496.585L496.285 432.3L497.785 557.7C497.785 561.9 496.485 565.3 493.885 567.9C491.285 570.5 487.885 571.8 483.685 571.8C479.485 571.8 476.086 570.5 473.486 567.9C470.886 565.3 469.585 561.9 469.585 557.7V383.1C469.585 374.9 471.685 368.7 475.885 364.5C480.085 360.3 486.385 358.2 494.785 358.2C502.585 358.2 508.485 360.2 512.485 364.2C516.485 368.2 518.686 374.5 519.086 383.1L522.385 484.8L523.586 513H524.185L525.086 484.8L528.086 383.1C528.486 374.5 530.685 368.2 534.685 364.2C538.685 360.2 544.585 358.2 552.385 358.2C560.785 358.2 567.085 360.3 571.285 364.5C575.485 368.7 577.586 374.9 577.586 383.1Z" fill="white"/>
<path d="M640.55 377.4L654.35 554.7C654.75 559.5 653.45 563.6 650.45 567C647.45 570.2 643.35 571.8 638.15 571.8C633.35 571.8 629.55 570.3 626.75 567.3C623.95 564.3 622.45 560.4 622.25 555.6L620.75 516.3L624.65 519.9H608.45L612.35 516.3L610.85 557.1C610.65 561.5 609.25 565.1 606.65 567.9C604.25 570.5 600.85 571.8 596.45 571.8C592.05 571.8 588.35 570.4 585.35 567.6C582.55 564.6 581.35 560.8 581.75 556.2L595.85 377.4C596.25 371 598.35 366.2 602.15 363C606.15 359.8 611.55 358.2 618.35 358.2C625.15 358.2 630.45 359.8 634.25 363C638.05 366.2 640.15 371 640.55 377.4ZM612.95 496.5L609.65 492.9H622.85L620.15 496.5L617.75 426.3L616.85 393H616.25L615.35 426.3L612.95 496.5Z" fill="white"/>
<path d="M723.95 505.5V538.8C723.95 549.4 720.85 557.6 714.65 563.4C708.45 569 700.55 571.8 690.95 571.8C681.35 571.8 673.45 569 667.25 563.4C661.05 557.6 657.95 549.4 657.95 538.8V511.2C657.95 506.6 659.25 503 661.85 500.4C664.65 497.6 668.35 496.2 672.95 496.2C677.55 496.2 681.15 497.6 683.75 500.4C686.55 503 687.95 506.6 687.95 511.2V540.3C687.95 541.9 688.15 543.1 688.55 543.9C689.15 544.5 689.95 544.8 690.95 544.8C691.95 544.8 692.65 544.5 693.05 543.9C693.65 543.1 693.95 541.9 693.95 540.3V505.5C693.95 499.1 692.25 492.8 688.85 486.6C685.65 480.2 681.95 473.6 677.75 466.8C672.95 459 668.45 450.9 664.25 442.5C660.05 434.1 657.95 425 657.95 415.2V391.2C657.95 380.8 661.05 372.7 667.25 366.9C673.65 361.1 681.65 358.2 691.25 358.2C700.85 358.2 708.65 361.1 714.65 366.9C720.85 372.5 723.95 380.6 723.95 391.2V409.5C723.95 414.1 722.55 417.8 719.75 420.6C717.15 423.2 713.55 424.5 708.95 424.5C704.35 424.5 700.65 423.2 697.85 420.6C695.25 417.8 693.95 414.1 693.95 409.5V389.7C693.95 388.1 693.65 387 693.05 386.4C692.65 385.6 691.95 385.2 690.95 385.2C689.95 385.2 689.15 385.6 688.55 386.4C688.15 387 687.95 388.1 687.95 389.7V415.2C687.95 421.6 689.55 428 692.75 434.4C696.15 440.6 699.95 447.1 704.15 453.9C708.95 461.7 713.45 469.9 717.65 478.5C721.85 486.9 723.95 495.9 723.95 505.5Z" fill="white"/>
<path d="M799.049 376.8L785.249 456V456.6L799.649 553.2C800.249 558.4 799.349 562.8 796.949 566.4C794.549 570 790.549 571.8 784.949 571.8C780.749 571.8 777.249 570.7 774.449 568.5C771.849 566.1 770.349 562.9 769.949 558.9L760.049 473.4H759.449V556.8C759.449 561.4 758.049 565.1 755.249 567.9C752.649 570.5 749.049 571.8 744.449 571.8C739.849 571.8 736.149 570.5 733.349 567.9C730.749 565.1 729.449 561.4 729.449 556.8V373.2C729.449 368.6 730.749 365 733.349 362.4C736.149 359.6 739.849 358.2 744.449 358.2C749.049 358.2 752.649 359.6 755.249 362.4C758.049 365 759.449 368.6 759.449 373.2V444.9H760.049L769.649 371.1C770.249 367.1 771.849 364 774.449 361.8C777.049 359.4 780.449 358.2 784.649 358.2C790.049 358.2 793.949 360.1 796.349 363.9C798.949 367.5 799.849 371.8 799.049 376.8Z" fill="white"/>
<path d="M49.4341 361.1C51.8341 361.1 53.7841 361.95 55.2841 363.65C56.8841 365.25 57.5841 367.3 57.3841 369.8L52.7341 458.9C52.5341 461.8 51.5341 464.05 49.7341 465.65C47.9341 467.15 45.4341 467.9 42.2341 467.9C39.0341 467.9 36.4841 467.15 34.5841 465.65C32.7841 464.15 31.8341 461.9 31.7341 458.9L29.4841 395.15L29.1841 378.65H28.8841L28.5841 395.15L26.3341 458.9C26.2341 461.9 25.2341 464.15 23.3341 465.65C21.5341 467.15 19.0341 467.9 15.8341 467.9C12.6341 467.9 10.1341 467.15 8.33412 465.65C6.53412 464.15 5.53412 461.9 5.33412 458.9L0.0841222 370.25C-0.115878 367.55 0.534122 365.35 2.03412 363.65C3.53412 361.95 5.63412 361.1 8.33412 361.1C10.9341 361.1 12.9841 361.85 14.4841 363.35C15.9841 364.85 16.7341 366.9 16.7341 369.5V432.35L16.8841 450.5H17.1841L17.7841 432.35L20.7841 368.15C20.8841 365.85 21.6341 364.1 23.0341 362.9C24.5341 361.7 26.5341 361.1 29.0341 361.1C31.5341 361.1 33.4841 361.7 34.8841 362.9C36.3841 364 37.1841 365.75 37.2841 368.15L40.2841 432.35L40.8841 450.5H41.1841L41.3341 432.35V369.2C41.3341 366.8 42.0841 364.85 43.5841 363.35C45.0841 361.85 47.0341 361.1 49.4341 361.1Z" fill="white"/>
<path d="M74.7173 368.6V460.4C74.7173 462.7 74.0173 464.55 72.6173 465.95C71.3173 467.25 69.5173 467.9 67.2173 467.9C64.9173 467.9 63.0673 467.25 61.6673 465.95C60.3673 464.55 59.7173 462.7 59.7173 460.4V368.6C59.7173 366.3 60.3673 364.5 61.6673 363.2C63.0673 361.8 64.9173 361.1 67.2173 361.1C69.5173 361.1 71.3173 361.8 72.6173 363.2C74.0173 364.5 74.7173 366.3 74.7173 368.6Z" fill="white"/>
<path d="M102.767 362C104.767 362 106.367 362.65 107.567 363.95C108.867 365.15 109.517 366.75 109.517 368.75C109.517 370.75 108.867 372.4 107.567 373.7C106.367 374.9 104.767 375.5 102.767 375.5H100.517V460.4C100.517 462.7 99.8173 464.55 98.4173 465.95C97.1173 467.25 95.3173 467.9 93.0173 467.9C90.7173 467.9 88.8673 467.25 87.4673 465.95C86.1673 464.55 85.5173 462.7 85.5173 460.4V375.5H83.2673C81.2673 375.5 79.6173 374.9 78.3173 373.7C77.1173 372.4 76.5173 370.75 76.5173 368.75C76.5173 366.75 77.1173 365.15 78.3173 363.95C79.6173 362.65 81.2673 362 83.2673 362H102.767Z" fill="white"/>
<path d="M144.28 368.6V460.4C144.28 462.7 143.58 464.55 142.18 465.95C140.88 467.25 139.08 467.9 136.78 467.9C134.48 467.9 132.63 467.25 131.23 465.95C129.93 464.55 129.28 462.7 129.28 460.4V419.6L130.93 421.4H125.08L126.28 419.6V460.4C126.28 462.7 125.58 464.55 124.18 465.95C122.88 467.25 121.08 467.9 118.78 467.9C116.48 467.9 114.63 467.25 113.23 465.95C111.93 464.55 111.28 462.7 111.28 460.4V368.6C111.28 366.3 111.93 364.5 113.23 363.2C114.63 361.8 116.48 361.1 118.78 361.1C121.08 361.1 122.88 361.8 124.18 363.2C125.58 364.5 126.28 366.3 126.28 368.6V409.7L124.63 407.9H130.48L129.28 409.7V368.6C129.28 366.3 129.93 364.5 131.23 363.2C132.63 361.8 134.48 361.1 136.78 361.1C139.08 361.1 140.88 361.8 142.18 363.2C143.58 364.5 144.28 366.3 144.28 368.6Z" fill="white"/>
<path d="M31.9996 143.2V326.8C31.9996 331.4 30.5996 335.1 27.7996 337.9C25.1996 340.5 21.5996 341.8 16.9996 341.8C12.3996 341.8 8.69955 340.5 5.89955 337.9C3.29955 335.1 1.99955 331.4 1.99955 326.8V143.2C1.99955 138.6 3.29955 135 5.89955 132.4C8.69955 129.6 12.3996 128.2 16.9996 128.2C21.5996 128.2 25.1996 129.6 27.7996 132.4C30.5996 135 31.9996 138.6 31.9996 143.2Z" fill="white"/>
<path d="M119.035 142.3V324.7C119.035 330.3 117.235 334.6 113.635 337.6C110.035 340.4 105.235 341.8 99.2347 341.8C93.2347 341.8 88.6347 340.4 85.4347 337.6C82.2347 334.6 80.3347 330.3 79.7347 324.7L60.8347 178H60.2347L65.0347 239.5L66.5347 325.9C66.5347 330.1 65.2347 333.5 62.6347 336.1C60.0347 338.7 56.5347 340 52.1347 340C47.9347 340 44.5347 338.7 41.9347 336.1C39.3347 333.5 38.0347 330.1 38.0347 325.9V145.3C38.0347 139.7 39.8347 135.5 43.4347 132.7C47.0347 129.7 51.8347 128.2 57.8347 128.2C63.8347 128.2 68.4347 129.7 71.6347 132.7C74.8347 135.5 76.8347 139.7 77.6347 145.3L96.2347 292H96.8347L92.3347 229.6L90.8347 142.3C90.8347 138.1 92.1347 134.7 94.7347 132.1C97.3347 129.5 100.735 128.2 104.935 128.2C109.135 128.2 112.535 129.5 115.135 132.1C117.735 134.7 119.035 138.1 119.035 142.3Z" fill="white"/>
<path d="M175.404 130C179.404 130 182.604 131.3 185.004 133.9C187.604 136.3 188.904 139.5 188.904 143.5C188.904 147.5 187.604 150.8 185.004 153.4C182.604 155.8 179.404 157 175.404 157H170.904V326.8C170.904 331.4 169.504 335.1 166.704 337.9C164.104 340.5 160.504 341.8 155.904 341.8C151.304 341.8 147.604 340.5 144.804 337.9C142.204 335.1 140.904 331.4 140.904 326.8V157H136.404C132.404 157 129.104 155.8 126.504 153.4C124.104 150.8 122.904 147.5 122.904 143.5C122.904 139.5 124.104 136.3 126.504 133.9C129.104 131.3 132.404 130 136.404 130H175.404Z" fill="white"/>
<path d="M226.929 130C230.929 130 234.129 131.3 236.529 133.9C239.129 136.3 240.429 139.5 240.429 143.5C240.429 147.5 239.129 150.8 236.529 153.4C234.129 155.8 230.929 157 226.929 157H220.629L222.429 153.4V222.4L221.829 218.8H223.929C227.929 218.8 231.129 220.1 233.529 222.7C236.129 225.1 237.429 228.3 237.429 232.3C237.429 236.3 236.129 239.6 233.529 242.2C231.129 244.6 227.929 245.8 223.929 245.8H221.829L222.429 242.2V316.6L221.229 313H225.429C229.429 313 232.629 314.3 235.029 316.9C237.629 319.3 238.929 322.5 238.929 326.5C238.929 330.5 237.629 333.8 235.029 336.4C232.629 338.8 229.429 340 225.429 340H205.929C201.929 340 198.629 338.8 196.029 336.4C193.629 333.8 192.429 330.5 192.429 326.5V143.5C192.429 139.5 193.629 136.3 196.029 133.9C198.629 131.3 201.929 130 205.929 130H226.929Z" fill="white"/>
<path d="M280.285 251.5C280.285 249.9 279.985 248.8 279.385 248.2C278.985 247.4 278.285 247 277.285 247H273.085L274.285 243.4V326.8C274.285 331.4 272.885 335.1 270.085 337.9C267.485 340.5 263.885 341.8 259.285 341.8C254.685 341.8 250.985 340.5 248.185 337.9C245.585 335.1 244.285 331.4 244.285 326.8V145C244.285 140.4 245.585 136.8 248.185 134.2C250.985 131.4 254.685 130 259.285 130H277.585C288.585 130 296.785 132.4 302.185 137.2C307.585 141.8 310.285 149.4 310.285 160V202.6C310.285 211.6 309.585 218.5 308.185 223.3C306.985 227.9 303.485 231.2 297.685 233.2V233.8C303.485 235.6 306.985 238.9 308.185 243.7C309.585 248.3 310.285 255.2 310.285 264.4V326.8C310.285 331.4 308.885 335.1 306.085 337.9C303.485 340.5 299.885 341.8 295.285 341.8C290.685 341.8 286.985 340.5 284.185 337.9C281.585 335.1 280.285 331.4 280.285 326.8V251.5ZM280.285 161.5C280.285 159.9 279.985 158.8 279.385 158.2C278.985 157.4 278.285 157 277.285 157H273.085L274.285 153.4V223.6L273.085 220H277.285C278.285 220 278.985 219.7 279.385 219.1C279.985 218.3 280.285 217.1 280.285 215.5V161.5Z" fill="white"/>
<path d="M397.355 142.3V324.7C397.355 330.3 395.555 334.6 391.955 337.6C388.355 340.4 383.555 341.8 377.555 341.8C371.555 341.8 366.955 340.4 363.755 337.6C360.555 334.6 358.655 330.3 358.055 324.7L339.155 178H338.555L343.355 239.5L344.855 325.9C344.855 330.1 343.555 333.5 340.955 336.1C338.355 338.7 334.855 340 330.455 340C326.255 340 322.855 338.7 320.255 336.1C317.655 333.5 316.355 330.1 316.355 325.9V145.3C316.355 139.7 318.155 135.5 321.755 132.7C325.355 129.7 330.155 128.2 336.155 128.2C342.155 128.2 346.755 129.7 349.955 132.7C353.155 135.5 355.155 139.7 355.955 145.3L374.555 292H375.155L370.655 229.6L369.155 142.3C369.155 138.1 370.455 134.7 373.055 132.1C375.655 129.5 379.055 128.2 383.255 128.2C387.455 128.2 390.855 129.5 393.455 132.1C396.055 134.7 397.355 138.1 397.355 142.3Z" fill="white"/>
<path d="M438.16 130C442.16 130 445.36 131.3 447.76 133.9C450.36 136.3 451.66 139.5 451.66 143.5C451.66 147.5 450.36 150.8 447.76 153.4C445.36 155.8 442.16 157 438.16 157H431.86L433.66 153.4V222.4L433.06 218.8H435.16C439.16 218.8 442.36 220.1 444.76 222.7C447.36 225.1 448.66 228.3 448.66 232.3C448.66 236.3 447.36 239.6 444.76 242.2C442.36 244.6 439.16 245.8 435.16 245.8H433.06L433.66 242.2V316.6L432.46 313H436.66C440.66 313 443.86 314.3 446.26 316.9C448.86 319.3 450.16 322.5 450.16 326.5C450.16 330.5 448.86 333.8 446.26 336.4C443.86 338.8 440.66 340 436.66 340H417.16C413.16 340 409.86 338.8 407.26 336.4C404.86 333.8 403.66 330.5 403.66 326.5V143.5C403.66 139.5 404.86 136.3 407.26 133.9C409.86 131.3 413.16 130 417.16 130H438.16Z" fill="white"/>
<path d="M507.045 130C511.045 130 514.245 131.3 516.645 133.9C519.245 136.3 520.545 139.5 520.545 143.5C520.545 147.5 519.245 150.8 516.645 153.4C514.245 155.8 511.045 157 507.045 157H502.545V326.8C502.545 331.4 501.145 335.1 498.345 337.9C495.745 340.5 492.145 341.8 487.545 341.8C482.945 341.8 479.245 340.5 476.445 337.9C473.845 335.1 472.545 331.4 472.545 326.8V157H468.045C464.045 157 460.745 155.8 458.145 153.4C455.745 150.8 454.545 147.5 454.545 143.5C454.545 139.5 455.745 136.3 458.145 133.9C460.745 131.3 464.045 130 468.045 130H507.045Z" fill="white"/>
<path d="M585.558 159.7C585.558 158.1 585.358 157 584.958 156.4C584.558 155.6 583.758 155.2 582.558 155.2C581.558 155.2 580.758 155.6 580.158 156.4C579.758 157 579.558 158.1 579.558 159.7V310.3C579.558 311.9 579.758 313.1 580.158 313.9C580.758 314.5 581.558 314.8 582.558 314.8C583.758 314.8 584.558 314.5 584.958 313.9C585.358 313.1 585.558 311.9 585.558 310.3V266.2C585.558 261.6 586.858 258 589.458 255.4C592.258 252.6 595.958 251.2 600.558 251.2C605.158 251.2 608.758 252.6 611.358 255.4C614.158 258 615.558 261.6 615.558 266.2V308.8C615.558 319.4 612.458 327.6 606.258 333.4C600.058 339 592.158 341.8 582.558 341.8C572.958 341.8 565.058 339 558.858 333.4C552.658 327.6 549.558 319.4 549.558 308.8V161.2C549.558 150.8 552.658 142.7 558.858 136.9C565.258 131.1 573.258 128.2 582.858 128.2C592.458 128.2 600.258 131.1 606.258 136.9C612.458 142.5 615.558 150.6 615.558 161.2V194.5C615.558 199.1 614.158 202.8 611.358 205.6C608.758 208.2 605.158 209.5 600.558 209.5C595.958 209.5 592.258 208.2 589.458 205.6C586.858 202.8 585.558 199.1 585.558 194.5V159.7Z" fill="white"/>
<path d="M687.628 161.2V308.8C687.628 319.4 684.528 327.6 678.328 333.4C672.128 339 664.228 341.8 654.628 341.8C645.028 341.8 637.128 339 630.928 333.4C624.728 327.6 621.628 319.4 621.628 308.8V161.2C621.628 150.8 624.728 142.7 630.928 136.9C637.328 131.1 645.328 128.2 654.928 128.2C664.528 128.2 672.328 131.1 678.328 136.9C684.528 142.5 687.628 150.6 687.628 161.2ZM657.628 159.7C657.628 158.1 657.328 157 656.728 156.4C656.328 155.6 655.628 155.2 654.628 155.2C653.628 155.2 652.828 155.6 652.228 156.4C651.828 157 651.628 158.1 651.628 159.7V310.3C651.628 311.9 651.828 313.1 652.228 313.9C652.828 314.5 653.628 314.8 654.628 314.8C655.628 314.8 656.328 314.5 656.728 313.9C657.328 313.1 657.628 311.9 657.628 310.3V159.7Z" fill="white"/>
<path d="M801.699 153.1V327.7C801.699 331.9 800.399 335.3 797.799 337.9C795.199 340.5 791.799 341.8 787.599 341.8C783.399 341.8 779.999 340.5 777.399 337.9C774.799 335.3 773.499 331.9 773.499 327.7L774.999 202.3L774.699 169H774.099L771.999 202.3L761.799 327.4C761.399 331.6 759.899 335.1 757.299 337.9C754.899 340.5 751.599 341.8 747.399 341.8C743.199 341.8 739.899 340.5 737.499 337.9C735.099 335.1 733.699 331.6 733.299 327.4L723.399 202.3L721.299 169H720.699L720.399 202.3L721.899 327.7C721.899 331.9 720.599 335.3 717.999 337.9C715.399 340.5 711.999 341.8 707.799 341.8C703.599 341.8 700.199 340.5 697.599 337.9C694.999 335.3 693.699 331.9 693.699 327.7V153.1C693.699 144.9 695.799 138.7 699.999 134.5C704.199 130.3 710.499 128.2 718.899 128.2C726.699 128.2 732.599 130.2 736.599 134.2C740.599 138.2 742.799 144.5 743.199 153.1L746.499 254.8L747.699 283H748.299L749.199 254.8L752.199 153.1C752.599 144.5 754.799 138.2 758.799 134.2C762.799 130.2 768.699 128.2 776.499 128.2C784.899 128.2 791.199 130.3 795.399 134.5C799.599 138.7 801.699 144.9 801.699 153.1Z" fill="white"/>
<path d="M873.664 160V223C873.664 233.6 870.964 241.3 865.564 246.1C860.164 250.7 851.864 253 840.664 253H837.664V326.8C837.664 331.4 836.264 335.1 833.464 337.9C830.864 340.5 827.264 341.8 822.664 341.8C818.064 341.8 814.364 340.5 811.564 337.9C808.964 335.1 807.664 331.4 807.664 326.8V145C807.664 140.4 808.964 136.8 811.564 134.2C814.364 131.4 818.064 130 822.664 130H840.964C851.964 130 860.164 132.4 865.564 137.2C870.964 141.8 873.664 149.4 873.664 160ZM843.664 161.5C843.664 159.9 843.364 158.8 842.764 158.2C842.364 157.4 841.664 157 840.664 157H837.664V226H840.664C841.664 226 842.364 225.7 842.764 225.1C843.364 224.3 843.664 223.1 843.664 221.5V161.5Z" fill="white"/>
<path d="M945.734 143.2V310.9C945.734 320.7 942.634 328.3 936.434 333.7C930.234 339.1 922.334 341.8 912.734 341.8C903.134 341.8 895.234 339.1 889.034 333.7C882.834 328.3 879.734 320.7 879.734 310.9V143.2C879.734 138.6 881.034 135 883.634 132.4C886.434 129.6 890.134 128.2 894.734 128.2C899.334 128.2 902.934 129.6 905.534 132.4C908.334 135 909.734 138.6 909.734 143.2V310.6C909.734 312 909.934 313.1 910.334 313.9C910.934 314.5 911.734 314.8 912.734 314.8C913.734 314.8 914.434 314.5 914.834 313.9C915.434 313.1 915.734 312 915.734 310.6V143.2C915.734 138.6 917.034 135 919.634 132.4C922.434 129.6 926.134 128.2 930.734 128.2C935.334 128.2 938.934 129.6 941.534 132.4C944.334 135 945.734 138.6 945.734 143.2Z" fill="white"/>
<path d="M1001.87 130C1005.87 130 1009.07 131.3 1011.47 133.9C1014.07 136.3 1015.37 139.5 1015.37 143.5C1015.37 147.5 1014.07 150.8 1011.47 153.4C1009.07 155.8 1005.87 157 1001.87 157H997.369V326.8C997.369 331.4 995.969 335.1 993.169 337.9C990.569 340.5 986.969 341.8 982.369 341.8C977.769 341.8 974.069 340.5 971.269 337.9C968.669 335.1 967.369 331.4 967.369 326.8V157H962.869C958.869 157 955.569 155.8 952.969 153.4C950.569 150.8 949.369 147.5 949.369 143.5C949.369 139.5 950.569 136.3 952.969 133.9C955.569 131.3 958.869 130 962.869 130H1001.87Z" fill="white"/>
<path d="M1053.39 130C1057.39 130 1060.59 131.3 1062.99 133.9C1065.59 136.3 1066.89 139.5 1066.89 143.5C1066.89 147.5 1065.59 150.8 1062.99 153.4C1060.59 155.8 1057.39 157 1053.39 157H1047.09L1048.89 153.4V222.4L1048.29 218.8H1050.39C1054.39 218.8 1057.59 220.1 1059.99 222.7C1062.59 225.1 1063.89 228.3 1063.89 232.3C1063.89 236.3 1062.59 239.6 1059.99 242.2C1057.59 244.6 1054.39 245.8 1050.39 245.8H1048.29L1048.89 242.2V316.6L1047.69 313H1051.89C1055.89 313 1059.09 314.3 1061.49 316.9C1064.09 319.3 1065.39 322.5 1065.39 326.5C1065.39 330.5 1064.09 333.8 1061.49 336.4C1059.09 338.8 1055.89 340 1051.89 340H1032.39C1028.39 340 1025.09 338.8 1022.49 336.4C1020.09 333.8 1018.89 330.5 1018.89 326.5V143.5C1018.89 139.5 1020.09 136.3 1022.49 133.9C1025.09 131.3 1028.39 130 1032.39 130H1053.39Z" fill="white"/>
<path d="M1106.75 251.5C1106.75 249.9 1106.45 248.8 1105.85 248.2C1105.45 247.4 1104.75 247 1103.75 247H1099.55L1100.75 243.4V326.8C1100.75 331.4 1099.35 335.1 1096.55 337.9C1093.95 340.5 1090.35 341.8 1085.75 341.8C1081.15 341.8 1077.45 340.5 1074.65 337.9C1072.05 335.1 1070.75 331.4 1070.75 326.8V145C1070.75 140.4 1072.05 136.8 1074.65 134.2C1077.45 131.4 1081.15 130 1085.75 130H1104.05C1115.05 130 1123.25 132.4 1128.65 137.2C1134.05 141.8 1136.75 149.4 1136.75 160V202.6C1136.75 211.6 1136.05 218.5 1134.65 223.3C1133.45 227.9 1129.95 231.2 1124.15 233.2V233.8C1129.95 235.6 1133.45 238.9 1134.65 243.7C1136.05 248.3 1136.75 255.2 1136.75 264.4V326.8C1136.75 331.4 1135.35 335.1 1132.55 337.9C1129.95 340.5 1126.35 341.8 1121.75 341.8C1117.15 341.8 1113.45 340.5 1110.65 337.9C1108.05 335.1 1106.75 331.4 1106.75 326.8V251.5ZM1106.75 161.5C1106.75 159.9 1106.45 158.8 1105.85 158.2C1105.45 157.4 1104.75 157 1103.75 157H1099.55L1100.75 153.4V223.6L1099.55 220H1103.75C1104.75 220 1105.45 219.7 1105.85 219.1C1106.45 218.3 1106.75 217.1 1106.75 215.5V161.5Z" fill="white"/>
<path d="M33.6675 7.60007V91.4501C33.6675 96.3501 32.1175 100.15 29.0175 102.85C25.9175 105.55 21.9675 106.9 17.1675 106.9C12.3675 106.9 8.41752 105.55 5.31752 102.85C2.21752 100.15 0.667521 96.3501 0.667521 91.4501V7.60007C0.667521 5.30007 1.31752 3.50007 2.61752 2.20007C4.01752 0.800067 5.86752 0.100067 8.16752 0.100067C10.4675 0.100067 12.2675 0.800067 13.5675 2.20007C14.9675 3.50007 15.6675 5.30007 15.6675 7.60007V91.3001C15.6675 92.0001 15.7675 92.5501 15.9675 92.9501C16.2675 93.2501 16.6675 93.4001 17.1675 93.4001C17.6675 93.4001 18.0175 93.2501 18.2175 92.9501C18.5175 92.5501 18.6675 92.0001 18.6675 91.3001V7.60007C18.6675 5.30007 19.3175 3.50007 20.6175 2.20007C22.0175 0.800067 23.8675 0.100067 26.1675 0.100067C28.4675 0.100067 30.2675 0.800067 31.5675 2.20007C32.9675 3.50007 33.6675 5.30007 33.6675 7.60007Z" fill="white"/>
<path d="M69.4027 73.7501V90.4001C69.4027 95.7001 67.8527 99.8001 64.7527 102.7C61.6527 105.5 57.7027 106.9 52.9027 106.9C48.1027 106.9 44.1527 105.5 41.0527 102.7C37.9527 99.8001 36.4027 95.7001 36.4027 90.4001V76.6001C36.4027 74.3001 37.0527 72.5001 38.3527 71.2001C39.7527 69.8001 41.6027 69.1001 43.9027 69.1001C46.2027 69.1001 48.0027 69.8001 49.3027 71.2001C50.7027 72.5001 51.4027 74.3001 51.4027 76.6001V91.1501C51.4027 91.9501 51.5027 92.5501 51.7027 92.9501C52.0027 93.2501 52.4027 93.4001 52.9027 93.4001C53.4027 93.4001 53.7527 93.2501 53.9527 92.9501C54.2527 92.5501 54.4027 91.9501 54.4027 91.1501V73.7501C54.4027 70.5501 53.5527 67.4001 51.8527 64.3001C50.2527 61.1001 48.4027 57.8001 46.3027 54.4001C43.9027 50.5001 41.6527 46.4501 39.5527 42.2501C37.4527 38.0501 36.4027 33.5001 36.4027 28.6001V16.6001C36.4027 11.4001 37.9527 7.35007 41.0527 4.45006C44.2527 1.55007 48.2527 0.100067 53.0527 0.100067C57.8527 0.100067 61.7527 1.55007 64.7527 4.45006C67.8527 7.25006 69.4027 11.3001 69.4027 16.6001V25.7501C69.4027 28.0501 68.7027 29.9001 67.3027 31.3001C66.0027 32.6001 64.2027 33.2501 61.9027 33.2501C59.6027 33.2501 57.7527 32.6001 56.3527 31.3001C55.0527 29.9001 54.4027 28.0501 54.4027 25.7501V15.8501C54.4027 15.0501 54.2527 14.5001 53.9527 14.2001C53.7527 13.8001 53.4027 13.6001 52.9027 13.6001C52.4027 13.6001 52.0027 13.8001 51.7027 14.2001C51.5027 14.5001 51.4027 15.0501 51.4027 15.8501V28.6001C51.4027 31.8001 52.2027 35.0001 53.8027 38.2001C55.5027 41.3001 57.4027 44.5501 59.5027 47.9501C61.9027 51.8501 64.1527 55.9501 66.2527 60.2501C68.3527 64.4501 69.4027 68.9501 69.4027 73.7501Z" fill="white"/>
<path d="M89.4019 1.00006C91.4019 1.00006 93.0019 1.65006 94.2019 2.95007C95.5019 4.15007 96.1519 5.75007 96.1519 7.75007C96.1519 9.75006 95.5019 11.4001 94.2019 12.7001C93.0019 13.9001 91.4019 14.5001 89.4019 14.5001H86.2519L87.1519 12.7001V47.2001L86.8519 45.4001H87.9019C89.9019 45.4001 91.5019 46.0501 92.7019 47.3501C94.0019 48.5501 94.6519 50.1501 94.6519 52.1501C94.6519 54.1501 94.0019 55.8001 92.7019 57.1001C91.5019 58.3001 89.9019 58.9001 87.9019 58.9001H86.8519L87.1519 57.1001V94.3001L86.5519 92.5001H88.6519C90.6519 92.5001 92.2519 93.1501 93.4519 94.4501C94.7519 95.6501 95.4019 97.2501 95.4019 99.2501C95.4019 101.25 94.7519 102.9 93.4519 104.2C92.2519 105.4 90.6519 106 88.6519 106H78.9019C76.9019 106 75.2519 105.4 73.9519 104.2C72.7519 102.9 72.1519 101.25 72.1519 99.2501V7.75007C72.1519 5.75007 72.7519 4.15007 73.9519 2.95007C75.2519 1.65006 76.9019 1.00006 78.9019 1.00006H89.4019Z" fill="white"/>
<path d="M135.856 1.00006C137.856 1.00006 139.456 1.65006 140.656 2.95007C141.956 4.15007 142.606 5.75007 142.606 7.75007C142.606 9.75006 141.956 11.4001 140.656 12.7001C139.456 13.9001 137.856 14.5001 135.856 14.5001H133.606V99.4001C133.606 101.7 132.906 103.55 131.506 104.95C130.206 106.25 128.406 106.9 126.106 106.9C123.806 106.9 121.956 106.25 120.556 104.95C119.256 103.55 118.606 101.7 118.606 99.4001V14.5001H116.356C114.356 14.5001 112.706 13.9001 111.406 12.7001C110.206 11.4001 109.606 9.75006 109.606 7.75007C109.606 5.75007 110.206 4.15007 111.406 2.95007C112.706 1.65006 114.356 1.00006 116.356 1.00006H135.856Z" fill="white"/>
<path d="M177.369 7.60007V99.4001C177.369 101.7 176.669 103.55 175.269 104.95C173.969 106.25 172.169 106.9 169.869 106.9C167.569 106.9 165.719 106.25 164.319 104.95C163.019 103.55 162.369 101.7 162.369 99.4001V58.6001L164.019 60.4001H158.169L159.369 58.6001V99.4001C159.369 101.7 158.669 103.55 157.269 104.95C155.969 106.25 154.169 106.9 151.869 106.9C149.569 106.9 147.719 106.25 146.319 104.95C145.019 103.55 144.369 101.7 144.369 99.4001V7.60007C144.369 5.30007 145.019 3.50007 146.319 2.20007C147.719 0.800067 149.569 0.100067 151.869 0.100067C154.169 0.100067 155.969 0.800067 157.269 2.20007C158.669 3.50007 159.369 5.30007 159.369 7.60007V48.7001L157.719 46.9001H163.569L162.369 48.7001V7.60007C162.369 5.30007 163.019 3.50007 164.319 2.20007C165.719 0.800067 167.569 0.100067 169.869 0.100067C172.169 0.100067 173.969 0.800067 175.269 2.20007C176.669 3.50007 177.369 5.30007 177.369 7.60007Z" fill="white"/>
<path d="M197.654 1.00006C199.654 1.00006 201.254 1.65006 202.454 2.95007C203.754 4.15007 204.404 5.75007 204.404 7.75007C204.404 9.75006 203.754 11.4001 202.454 12.7001C201.254 13.9001 199.654 14.5001 197.654 14.5001H194.504L195.404 12.7001V47.2001L195.104 45.4001H196.154C198.154 45.4001 199.754 46.0501 200.954 47.3501C202.254 48.5501 202.904 50.1501 202.904 52.1501C202.904 54.1501 202.254 55.8001 200.954 57.1001C199.754 58.3001 198.154 58.9001 196.154 58.9001H195.104L195.404 57.1001V94.3001L194.804 92.5001H196.904C198.904 92.5001 200.504 93.1501 201.704 94.4501C203.004 95.6501 203.654 97.2501 203.654 99.2501C203.654 101.25 203.004 102.9 201.704 104.2C200.504 105.4 198.904 106 196.904 106H187.154C185.154 106 183.504 105.4 182.204 104.2C181.004 102.9 180.404 101.25 180.404 99.2501V7.75007C180.404 5.75007 181.004 4.15007 182.204 2.95007C183.504 1.65006 185.154 1.00006 187.154 1.00006H197.654Z" fill="white"/>
<mask id="mask0_478_849" style="mask-type:luminance" maskUnits="userSpaceOnUse" x="728" y="-29" width="244" height="244">
<path d="M801.625 -29L971.343 44.6246L897.718 214.343L728 140.719L801.625 -29Z" fill="white"/>
</mask>
<g mask="url(#mask0_478_849)">
<path d="M812.86 177.531C765.993 157.2 744.482 102.726 764.813 55.8593C785.144 8.99282 839.618 -12.5186 886.484 7.81232C933.351 28.1432 954.862 82.617 934.531 129.484C914.201 176.35 859.726 197.862 812.86 177.531Z" fill="#5057FF"/>
<path d="M780.563 80.208C774.733 77.679 772.057 70.9027 774.586 65.0725C777.115 59.2423 783.892 56.5663 789.722 59.0954C795.552 61.6246 798.228 68.4012 795.699 74.231C793.17 80.062 786.393 82.738 780.563 80.208Z" fill="white"/>
<mask id="mask1_478_849" style="mask-type:luminance" maskUnits="userSpaceOnUse" x="773" y="58" width="24" height="24">
<path d="M780.563 80.208C774.733 77.679 772.057 70.9027 774.586 65.0725C777.115 59.2423 783.892 56.5663 789.722 59.0954C795.552 61.6246 798.228 68.4012 795.699 74.231C793.17 80.062 786.393 82.738 780.563 80.208Z" fill="white"/>
</mask>
<g mask="url(#mask1_478_849)">
<path d="M777.387 79.664C772.757 77.656 770.631 72.273 772.64 67.643C774.649 63.0126 780.031 60.8873 784.661 62.896C789.292 64.9047 791.417 70.2868 789.408 74.917C787.4 79.548 782.017 81.673 777.387 79.664Z" fill="#0A0B15"/>
</g>
<path d="M809.552 76.88C803.721 74.35 801.045 67.5738 803.575 61.7436C806.104 55.9134 812.88 53.2374 818.71 55.7666C824.541 58.2957 827.217 65.0723 824.688 70.9025C822.158 76.733 815.382 79.409 809.552 76.88Z" fill="white"/>
<mask id="mask2_478_849" style="mask-type:luminance" maskUnits="userSpaceOnUse" x="802" y="54" width="24" height="24">
<path d="M809.552 76.88C803.721 74.35 801.045 67.5738 803.575 61.7436C806.104 55.9134 812.88 53.2374 818.71 55.7666C824.541 58.2957 827.217 65.0723 824.688 70.9025C822.158 76.733 815.382 79.409 809.552 76.88Z" fill="white"/>
</mask>
<g mask="url(#mask2_478_849)">
<path d="M806.391 76.329C801.761 74.32 799.635 68.9381 801.644 64.3077C803.653 59.6773 809.035 57.5519 813.665 59.5606C818.295 61.5693 820.421 66.9514 818.412 71.582C816.403 76.212 811.021 78.338 806.391 76.329Z" fill="#0A0B15"/>
</g>
<path d="M806.618 82.424C805.176 86.679 798.462 87.436 796.095 83.627C795.418 82.553 796.409 81.074 797.663 81.282L798.22 81.362C800.503 81.707 802.446 81.381 804.564 80.498C805.746 80.003 807.028 81.231 806.618 82.424Z" fill="#0A0B15"/>
</g>
<path d="M802 153.1V327.7C802 331.9 800.7 335.3 798.1 337.9C795.5 340.5 792.1 341.8 787.9 341.8C783.7 341.8 780.3 340.5 777.7 337.9C775.1 335.3 773.8 331.9 773.8 327.7L775.3 202.3L775 169H774.4L772.3 202.3L762.1 327.4C761.7 331.6 760.2 335.1 757.6 337.9C755.2 340.5 751.9 341.8 747.7 341.8C743.5 341.8 740.2 340.5 737.8 337.9C735.4 335.1 734 331.6 733.6 327.4L723.7 202.3L721.6 169H721L720.7 202.3L722.2 327.7C722.2 331.9 720.9 335.3 718.3 337.9C715.7 340.5 712.3 341.8 708.1 341.8C703.9 341.8 700.5 340.5 697.9 337.9C695.3 335.3 694 331.9 694 327.7V153.1C694 144.9 696.1 138.7 700.3 134.5C704.5 130.3 710.8 128.2 719.2 128.2C727 128.2 732.9 130.2 736.9 134.2C740.9 138.2 743.1 144.5 743.5 153.1L746.8 254.8L748 283H748.6L749.5 254.8L752.5 153.1C752.9 144.5 755.1 138.2 759.1 134.2C763.1 130.2 769 128.2 776.8 128.2C785.2 128.2 791.5 130.3 795.7 134.5C799.9 138.7 802 144.9 802 153.1Z" fill="white"/>
<path d="M945.7 143.028V311.042C945.7 320.86 942.6 328.475 936.4 333.885C930.2 339.295 922.3 342 912.7 342C903.1 342 895.2 339.295 889 333.885C882.8 328.475 879.7 320.86 879.7 311.042V143.028C879.7 138.419 881 134.813 883.6 132.208C886.4 129.403 890.1 128 894.7 128C899.3 128 902.9 129.403 905.5 132.208C908.3 134.813 909.7 138.419 909.7 143.028V310.742C909.7 312.144 909.9 313.246 910.3 314.048C910.9 314.649 911.7 314.949 912.7 314.949C913.7 314.949 914.4 314.649 914.8 314.048C915.4 313.246 915.7 312.144 915.7 310.742V143.028C915.7 138.419 917 134.813 919.6 132.208C922.4 129.403 926.1 128 930.7 128C935.3 128 938.9 129.403 941.5 132.208C944.3 134.813 945.7 138.419 945.7 143.028Z" fill="white"/>
<g clip-path="url(#clip0_478_849)">
<path d="M1078.99 289.711C1102.9 303.515 1111.1 334.088 1097.29 357.998C1083.49 381.908 1052.91 390.1 1029 376.296C1005.09 362.492 996.902 331.918 1010.71 308.008C1024.51 284.098 1055.08 275.906 1078.99 289.711Z" fill="#FF41FF"/>
<path d="M1048.52 352.225C1051.49 353.945 1052.5 357.749 1050.78 360.72C1049.06 363.692 1045.26 364.706 1042.29 362.986C1039.32 361.266 1038.3 357.463 1040.02 354.491C1041.74 351.52 1045.54 350.505 1048.52 352.225Z" fill="white"/>
<mask id="mask3_478_849" style="mask-type:luminance" maskUnits="userSpaceOnUse" x="1039" y="351" width="13" height="13">
<path d="M1048.52 352.225C1051.49 353.945 1052.5 357.749 1050.78 360.72C1049.06 363.692 1045.26 364.706 1042.29 362.986C1039.32 361.266 1038.3 357.463 1040.02 354.491C1041.74 351.52 1045.54 350.505 1048.52 352.225Z" fill="white"/>
</mask>
<g mask="url(#mask3_478_849)">
<path d="M1050.59 354.027C1052.95 355.393 1053.75 358.414 1052.39 360.774C1051.02 363.134 1048 363.94 1045.64 362.574C1043.28 361.208 1042.47 358.187 1043.84 355.827C1045.21 353.467 1048.23 352.661 1050.59 354.027Z" fill="#0A0B15"/>
</g>
<path d="M1032.75 351.673C1035.72 353.393 1036.74 357.196 1035.02 360.168C1033.3 363.139 1029.49 364.154 1026.52 362.434C1023.55 360.714 1022.54 356.911 1024.26 353.939C1025.98 350.967 1029.78 349.953 1032.75 351.673Z" fill="white"/>
<mask id="mask4_478_849" style="mask-type:luminance" maskUnits="userSpaceOnUse" x="1023" y="350" width="13" height="14">
<path d="M1032.75 351.673C1035.72 353.393 1036.74 357.196 1035.02 360.168C1033.3 363.14 1029.49 364.154 1026.52 362.434C1023.55 360.714 1022.54 356.911 1024.26 353.939C1025.98 350.967 1029.78 349.953 1032.75 351.673Z" fill="white"/>
</mask>
<g mask="url(#mask4_478_849)">
<path d="M1034.83 353.478C1037.19 354.844 1038 357.865 1036.63 360.225C1035.26 362.585 1032.24 363.391 1029.88 362.025C1027.52 360.659 1026.72 357.638 1028.08 355.278C1029.45 352.918 1032.47 352.112 1034.83 353.478Z" fill="#0A0B15"/>
</g>
<path d="M1034.01 366.107C1034.95 368.349 1038.6 368.511 1039.73 366.369C1040.06 365.765 1039.47 365.004 1038.8 365.162L1038.5 365.226C1037.29 365.496 1036.23 365.391 1035.05 364.993C1034.4 364.769 1033.75 365.479 1034.01 366.107Z" fill="#0A0B15"/>
</g>
<path d="M1107 251.5C1107 249.9 1106.7 248.8 1106.1 248.2C1105.7 247.4 1105 247 1104 247H1099.8L1101 243.4V326.8C1101 331.4 1099.6 335.1 1096.8 337.9C1094.2 340.5 1090.6 341.8 1086 341.8C1081.4 341.8 1077.7 340.5 1074.9 337.9C1072.3 335.1 1071 331.4 1071 326.8V145C1071 140.4 1072.3 136.8 1074.9 134.2C1077.7 131.4 1081.4 130 1086 130H1104.3C1115.3 130 1123.5 132.4 1128.9 137.2C1134.3 141.8 1137 149.4 1137 160V202.6C1137 211.6 1136.3 218.5 1134.9 223.3C1133.7 227.9 1130.2 231.2 1124.4 233.2V233.8C1130.2 235.6 1133.7 238.9 1134.9 243.7C1136.3 248.3 1137 255.2 1137 264.4V326.8C1137 331.4 1135.6 335.1 1132.8 337.9C1130.2 340.5 1126.6 341.8 1122 341.8C1117.4 341.8 1113.7 340.5 1110.9 337.9C1108.3 335.1 1107 331.4 1107 326.8V251.5ZM1107 161.5C1107 159.9 1106.7 158.8 1106.1 158.2C1105.7 157.4 1105 157 1104 157H1099.8L1101 153.4V223.6L1099.8 220H1104C1105 220 1105.7 219.7 1106.1 219.1C1106.7 218.3 1107 217.1 1107 215.5V161.5Z" fill="white"/>
<defs>
<clipPath id="clip0_478_849">
<rect width="100" height="100" fill="white" transform="matrix(1 0 0 -1 1004 383)"/>
</clipPath>
</defs>
</svg>
