<svg width="1142" height="633" viewBox="0 0 1142 633" fill="none" xmlns="http://www.w3.org/2000/svg">
<path d="M278 412.1V586.7C278 590.9 276.7 594.3 274.1 596.9C271.5 599.5 268.1 600.8 263.9 600.8C259.7 600.8 256.3 599.5 253.7 596.9C251.1 594.3 249.8 590.9 249.8 586.7L251.3 461.3L251 428H250.4L248.3 461.3L238.1 586.4C237.7 590.6 236.2 594.1 233.6 596.9C231.2 599.5 227.9 600.8 223.7 600.8C219.5 600.8 216.2 599.5 213.8 596.9C211.4 594.1 210 590.6 209.6 586.4L199.7 461.3L197.6 428H197L196.7 461.3L198.2 586.7C198.2 590.9 196.9 594.3 194.3 596.9C191.7 599.5 188.3 600.8 184.1 600.8C179.9 600.8 176.5 599.5 173.9 596.9C171.3 594.3 170 590.9 170 586.7V412.1C170 403.9 172.1 397.7 176.3 393.5C180.5 389.3 186.8 387.2 195.2 387.2C203 387.2 208.9 389.2 212.9 393.2C216.9 397.2 219.1 403.5 219.5 412.1L222.8 513.8L224 542H224.6L225.5 513.8L228.5 412.1C228.9 403.5 231.1 397.2 235.1 393.2C239.1 389.2 245 387.2 252.8 387.2C261.2 387.2 267.5 389.3 271.7 393.5C275.9 397.7 278 403.9 278 412.1ZM318.465 389C322.465 389 325.665 390.3 328.065 392.9C330.665 395.3 331.965 398.5 331.965 402.5C331.965 406.5 330.665 409.8 328.065 412.4C325.665 414.8 322.465 416 318.465 416H312.165L313.965 412.4V481.4L313.365 477.8H315.465C319.465 477.8 322.665 479.1 325.065 481.7C327.665 484.1 328.965 487.3 328.965 491.3C328.965 495.3 327.665 498.6 325.065 501.2C322.665 503.6 319.465 504.8 315.465 504.8H313.365L313.965 501.2V575.6L312.765 572H316.965C320.965 572 324.165 573.3 326.565 575.9C329.165 578.3 330.465 581.5 330.465 585.5C330.465 589.5 329.165 592.8 326.565 595.4C324.165 597.8 320.965 599 316.965 599H297.465C293.465 599 290.165 597.8 287.565 595.4C285.165 592.8 283.965 589.5 283.965 585.5V402.5C283.965 398.5 285.165 395.3 287.565 392.9C290.165 390.3 293.465 389 297.465 389H318.465ZM387.35 389C391.35 389 394.55 390.3 396.95 392.9C399.55 395.3 400.85 398.5 400.85 402.5C400.85 406.5 399.55 409.8 396.95 412.4C394.55 414.8 391.35 416 387.35 416H382.85V585.8C382.85 590.4 381.45 594.1 378.65 596.9C376.05 599.5 372.45 600.8 367.85 600.8C363.25 600.8 359.55 599.5 356.75 596.9C354.15 594.1 352.85 590.4 352.85 585.8V416H348.35C344.35 416 341.05 414.8 338.45 412.4C336.05 409.8 334.85 406.5 334.85 402.5C334.85 398.5 336.05 395.3 338.45 392.9C341.05 390.3 344.35 389 348.35 389H387.35ZM452.586 406.4L466.386 583.7C466.786 588.5 465.486 592.6 462.486 596C459.486 599.2 455.386 600.8 450.186 600.8C445.386 600.8 441.586 599.3 438.786 596.3C435.986 593.3 434.486 589.4 434.286 584.6L432.786 545.3L436.686 548.9H420.486L424.386 545.3L422.886 586.1C422.686 590.5 421.286 594.1 418.686 596.9C416.286 599.5 412.886 600.8 408.486 600.8C404.086 600.8 400.386 599.4 397.386 596.6C394.586 593.6 393.386 589.8 393.786 585.2L407.886 406.4C408.286 400 410.386 395.2 414.186 392C418.186 388.8 423.586 387.2 430.386 387.2C437.186 387.2 442.486 388.8 446.286 392C450.086 395.2 452.186 400 452.586 406.4ZM424.986 525.5L421.686 521.9H434.886L432.186 525.5L429.786 455.3L428.886 422H428.286L427.386 455.3L424.986 525.5ZM578.586 412.1V586.7C578.586 590.9 577.286 594.3 574.686 596.9C572.086 599.5 568.686 600.8 564.486 600.8C560.286 600.8 556.886 599.5 554.286 596.9C551.686 594.3 550.386 590.9 550.386 586.7L551.886 461.3L551.586 428H550.986L548.886 461.3L538.686 586.4C538.286 590.6 536.786 594.1 534.186 596.9C531.786 599.5 528.486 600.8 524.286 600.8C520.086 600.8 516.786 599.5 514.386 596.9C511.986 594.1 510.586 590.6 510.186 586.4L500.286 461.3L498.186 428H497.586L497.286 461.3L498.786 586.7C498.786 590.9 497.486 594.3 494.886 596.9C492.286 599.5 488.886 600.8 484.686 600.8C480.486 600.8 477.086 599.5 474.486 596.9C471.886 594.3 470.586 590.9 470.586 586.7V412.1C470.586 403.9 472.686 397.7 476.886 393.5C481.086 389.3 487.386 387.2 495.786 387.2C503.586 387.2 509.486 389.2 513.486 393.2C517.486 397.2 519.686 403.5 520.086 412.1L523.386 513.8L524.586 542H525.186L526.086 513.8L529.086 412.1C529.486 403.5 531.686 397.2 535.686 393.2C539.686 389.2 545.586 387.2 553.386 387.2C561.786 387.2 568.086 389.3 572.286 393.5C576.486 397.7 578.586 403.9 578.586 412.1ZM641.551 406.4L655.351 583.7C655.751 588.5 654.451 592.6 651.451 596C648.451 599.2 644.351 600.8 639.151 600.8C634.351 600.8 630.551 599.3 627.751 596.3C624.951 593.3 623.451 589.4 623.251 584.6L621.751 545.3L625.651 548.9H609.451L613.351 545.3L611.851 586.1C611.651 590.5 610.251 594.1 607.651 596.9C605.251 599.5 601.851 600.8 597.451 600.8C593.051 600.8 589.351 599.4 586.351 596.6C583.551 593.6 582.351 589.8 582.751 585.2L596.851 406.4C597.251 400 599.351 395.2 603.151 392C607.151 388.8 612.551 387.2 619.351 387.2C626.151 387.2 631.451 388.8 635.251 392C639.051 395.2 641.151 400 641.551 406.4ZM613.951 525.5L610.651 521.9H623.851L621.151 525.5L618.751 455.3L617.851 422H617.251L616.351 455.3L613.951 525.5ZM724.951 534.5V567.8C724.951 578.4 721.851 586.6 715.651 592.4C709.451 598 701.551 600.8 691.951 600.8C682.351 600.8 674.451 598 668.251 592.4C662.051 586.6 658.951 578.4 658.951 567.8V540.2C658.951 535.6 660.251 532 662.851 529.4C665.651 526.6 669.351 525.2 673.951 525.2C678.551 525.2 682.151 526.6 684.751 529.4C687.551 532 688.951 535.6 688.951 540.2V569.3C688.951 570.9 689.151 572.1 689.551 572.9C690.151 573.5 690.951 573.8 691.951 573.8C692.951 573.8 693.651 573.5 694.051 572.9C694.651 572.1 694.951 570.9 694.951 569.3V534.5C694.951 528.1 693.251 521.8 689.851 515.6C686.651 509.2 682.951 502.6 678.751 495.8C673.951 488 669.451 479.9 665.251 471.5C661.051 463.1 658.951 454 658.951 444.2V420.2C658.951 409.8 662.051 401.7 668.251 395.9C674.651 390.1 682.651 387.2 692.251 387.2C701.851 387.2 709.651 390.1 715.651 395.9C721.851 401.5 724.951 409.6 724.951 420.2V438.5C724.951 443.1 723.551 446.8 720.751 449.6C718.151 452.2 714.551 453.5 709.951 453.5C705.351 453.5 701.651 452.2 698.851 449.6C696.251 446.8 694.951 443.1 694.951 438.5V418.7C694.951 417.1 694.651 416 694.051 415.4C693.651 414.6 692.951 414.2 691.951 414.2C690.951 414.2 690.151 414.6 689.551 415.4C689.151 416 688.951 417.1 688.951 418.7V444.2C688.951 450.6 690.551 457 693.751 463.4C697.151 469.6 700.951 476.1 705.151 482.9C709.951 490.7 714.451 498.9 718.651 507.5C722.851 515.9 724.951 524.9 724.951 534.5ZM800.049 405.8L786.249 485V485.6L800.649 582.2C801.249 587.4 800.349 591.8 797.949 595.4C795.549 599 791.549 600.8 785.949 600.8C781.749 600.8 778.249 599.7 775.449 597.5C772.849 595.1 771.349 591.9 770.949 587.9L761.049 502.4H760.449V585.8C760.449 590.4 759.049 594.1 756.249 596.9C753.649 599.5 750.049 600.8 745.449 600.8C740.849 600.8 737.149 599.5 734.349 596.9C731.749 594.1 730.449 590.4 730.449 585.8V402.2C730.449 397.6 731.749 394 734.349 391.4C737.149 388.6 740.849 387.2 745.449 387.2C750.049 387.2 753.649 388.6 756.249 391.4C759.049 394 760.449 397.6 760.449 402.2V473.9H761.049L770.649 400.1C771.249 396.1 772.849 393 775.449 390.8C778.049 388.4 781.449 387.2 785.649 387.2C791.049 387.2 794.949 389.1 797.349 392.9C799.949 396.5 800.849 400.8 800.049 405.8Z" fill="white"/>
<path d="M50.4346 390.1C52.8346 390.1 54.7846 390.95 56.2846 392.65C57.8846 394.25 58.5846 396.3 58.3846 398.8L53.7346 487.9C53.5346 490.8 52.5346 493.05 50.7346 494.65C48.9346 496.15 46.4346 496.9 43.2346 496.9C40.0346 496.9 37.4846 496.15 35.5846 494.65C33.7846 493.15 32.8346 490.9 32.7346 487.9L30.4846 424.15L30.1846 407.65H29.8846L29.5846 424.15L27.3346 487.9C27.2346 490.9 26.2346 493.15 24.3346 494.65C22.5346 496.15 20.0346 496.9 16.8346 496.9C13.6346 496.9 11.1346 496.15 9.33457 494.65C7.53457 493.15 6.53457 490.9 6.33457 487.9L1.08457 399.25C0.88457 396.55 1.53457 394.35 3.03457 392.65C4.53457 390.95 6.63457 390.1 9.33457 390.1C11.9346 390.1 13.9846 390.85 15.4846 392.35C16.9846 393.85 17.7346 395.9 17.7346 398.5V461.35L17.8846 479.5H18.1846L18.7846 461.35L21.7846 397.15C21.8846 394.85 22.6346 393.1 24.0346 391.9C25.5346 390.7 27.5346 390.1 30.0346 390.1C32.5346 390.1 34.4846 390.7 35.8846 391.9C37.3846 393 38.1846 394.75 38.2846 397.15L41.2846 461.35L41.8846 479.5H42.1846L42.3346 461.35V398.2C42.3346 395.8 43.0846 393.85 44.5846 392.35C46.0846 390.85 48.0346 390.1 50.4346 390.1ZM75.7178 397.6V489.4C75.7178 491.7 75.0178 493.55 73.6178 494.95C72.3178 496.25 70.5178 496.9 68.2178 496.9C65.9178 496.9 64.0678 496.25 62.6678 494.95C61.3678 493.55 60.7178 491.7 60.7178 489.4V397.6C60.7178 395.3 61.3678 393.5 62.6678 392.2C64.0678 390.8 65.9178 390.1 68.2178 390.1C70.5178 390.1 72.3178 390.8 73.6178 392.2C75.0178 393.5 75.7178 395.3 75.7178 397.6ZM103.768 391C105.768 391 107.368 391.65 108.568 392.95C109.868 394.15 110.518 395.75 110.518 397.75C110.518 399.75 109.868 401.4 108.568 402.7C107.368 403.9 105.768 404.5 103.768 404.5H101.518V489.4C101.518 491.7 100.818 493.55 99.4178 494.95C98.1178 496.25 96.3178 496.9 94.0178 496.9C91.7178 496.9 89.8678 496.25 88.4678 494.95C87.1678 493.55 86.5178 491.7 86.5178 489.4V404.5H84.2678C82.2678 404.5 80.6178 403.9 79.3178 402.7C78.1178 401.4 77.5178 399.75 77.5178 397.75C77.5178 395.75 78.1178 394.15 79.3178 392.95C80.6178 391.65 82.2678 391 84.2678 391H103.768ZM145.28 397.6V489.4C145.28 491.7 144.58 493.55 143.18 494.95C141.88 496.25 140.08 496.9 137.78 496.9C135.48 496.9 133.63 496.25 132.23 494.95C130.93 493.55 130.28 491.7 130.28 489.4V448.6L131.93 450.4H126.08L127.28 448.6V489.4C127.28 491.7 126.58 493.55 125.18 494.95C123.88 496.25 122.08 496.9 119.78 496.9C117.48 496.9 115.63 496.25 114.23 494.95C112.93 493.55 112.28 491.7 112.28 489.4V397.6C112.28 395.3 112.93 393.5 114.23 392.2C115.63 390.8 117.48 390.1 119.78 390.1C122.08 390.1 123.88 390.8 125.18 392.2C126.58 393.5 127.28 395.3 127.28 397.6V438.7L125.63 436.9H131.48L130.28 438.7V397.6C130.28 395.3 130.93 393.5 132.23 392.2C133.63 390.8 135.48 390.1 137.78 390.1C140.08 390.1 141.88 390.8 143.18 392.2C144.58 393.5 145.28 395.3 145.28 397.6Z" fill="white"/>
<path d="M33 172.2V355.8C33 360.4 31.6 364.1 28.8 366.9C26.2 369.5 22.6 370.8 18 370.8C13.4 370.8 9.7 369.5 6.9 366.9C4.3 364.1 3 360.4 3 355.8V172.2C3 167.6 4.3 164 6.9 161.4C9.7 158.6 13.4 157.2 18 157.2C22.6 157.2 26.2 158.6 28.8 161.4C31.6 164 33 167.6 33 172.2ZM120.035 171.3V353.7C120.035 359.3 118.235 363.6 114.635 366.6C111.035 369.4 106.235 370.8 100.235 370.8C94.2352 370.8 89.6352 369.4 86.4352 366.6C83.2352 363.6 81.3352 359.3 80.7352 353.7L61.8352 207H61.2352L66.0352 268.5L67.5352 354.9C67.5352 359.1 66.2352 362.5 63.6352 365.1C61.0352 367.7 57.5352 369 53.1352 369C48.9352 369 45.5352 367.7 42.9352 365.1C40.3352 362.5 39.0352 359.1 39.0352 354.9V174.3C39.0352 168.7 40.8352 164.5 44.4352 161.7C48.0352 158.7 52.8352 157.2 58.8352 157.2C64.8352 157.2 69.4352 158.7 72.6352 161.7C75.8352 164.5 77.8352 168.7 78.6352 174.3L97.2352 321H97.8352L93.3352 258.6L91.8352 171.3C91.8352 167.1 93.1352 163.7 95.7352 161.1C98.3352 158.5 101.735 157.2 105.935 157.2C110.135 157.2 113.535 158.5 116.135 161.1C118.735 163.7 120.035 167.1 120.035 171.3ZM176.405 159C180.405 159 183.605 160.3 186.005 162.9C188.605 165.3 189.905 168.5 189.905 172.5C189.905 176.5 188.605 179.8 186.005 182.4C183.605 184.8 180.405 186 176.405 186H171.905V355.8C171.905 360.4 170.505 364.1 167.705 366.9C165.105 369.5 161.505 370.8 156.905 370.8C152.305 370.8 148.605 369.5 145.805 366.9C143.205 364.1 141.905 360.4 141.905 355.8V186H137.405C133.405 186 130.105 184.8 127.505 182.4C125.105 179.8 123.905 176.5 123.905 172.5C123.905 168.5 125.105 165.3 127.505 162.9C130.105 160.3 133.405 159 137.405 159H176.405ZM227.93 159C231.93 159 235.13 160.3 237.53 162.9C240.13 165.3 241.43 168.5 241.43 172.5C241.43 176.5 240.13 179.8 237.53 182.4C235.13 184.8 231.93 186 227.93 186H221.63L223.43 182.4V251.4L222.83 247.8H224.93C228.93 247.8 232.13 249.1 234.53 251.7C237.13 254.1 238.43 257.3 238.43 261.3C238.43 265.3 237.13 268.6 234.53 271.2C232.13 273.6 228.93 274.8 224.93 274.8H222.83L223.43 271.2V345.6L222.23 342H226.43C230.43 342 233.63 343.3 236.03 345.9C238.63 348.3 239.93 351.5 239.93 355.5C239.93 359.5 238.63 362.8 236.03 365.4C233.63 367.8 230.43 369 226.43 369H206.93C202.93 369 199.63 367.8 197.03 365.4C194.63 362.8 193.43 359.5 193.43 355.5V172.5C193.43 168.5 194.63 165.3 197.03 162.9C199.63 160.3 202.93 159 206.93 159H227.93ZM281.285 280.5C281.285 278.9 280.985 277.8 280.385 277.2C279.985 276.4 279.285 276 278.285 276H274.085L275.285 272.4V355.8C275.285 360.4 273.885 364.1 271.085 366.9C268.485 369.5 264.885 370.8 260.285 370.8C255.685 370.8 251.985 369.5 249.185 366.9C246.585 364.1 245.285 360.4 245.285 355.8V174C245.285 169.4 246.585 165.8 249.185 163.2C251.985 160.4 255.685 159 260.285 159H278.585C289.585 159 297.785 161.4 303.185 166.2C308.585 170.8 311.285 178.4 311.285 189V231.6C311.285 240.6 310.585 247.5 309.185 252.3C307.985 256.9 304.485 260.2 298.685 262.2V262.8C304.485 264.6 307.985 267.9 309.185 272.7C310.585 277.3 311.285 284.2 311.285 293.4V355.8C311.285 360.4 309.885 364.1 307.085 366.9C304.485 369.5 300.885 370.8 296.285 370.8C291.685 370.8 287.985 369.5 285.185 366.9C282.585 364.1 281.285 360.4 281.285 355.8V280.5ZM281.285 190.5C281.285 188.9 280.985 187.8 280.385 187.2C279.985 186.4 279.285 186 278.285 186H274.085L275.285 182.4V252.6L274.085 249H278.285C279.285 249 279.985 248.7 280.385 248.1C280.985 247.3 281.285 246.1 281.285 244.5V190.5ZM398.355 171.3V353.7C398.355 359.3 396.555 363.6 392.955 366.6C389.355 369.4 384.555 370.8 378.555 370.8C372.555 370.8 367.955 369.4 364.755 366.6C361.555 363.6 359.655 359.3 359.055 353.7L340.155 207H339.555L344.355 268.5L345.855 354.9C345.855 359.1 344.555 362.5 341.955 365.1C339.355 367.7 335.855 369 331.455 369C327.255 369 323.855 367.7 321.255 365.1C318.655 362.5 317.355 359.1 317.355 354.9V174.3C317.355 168.7 319.155 164.5 322.755 161.7C326.355 158.7 331.155 157.2 337.155 157.2C343.155 157.2 347.755 158.7 350.955 161.7C354.155 164.5 356.155 168.7 356.955 174.3L375.555 321H376.155L371.655 258.6L370.155 171.3C370.155 167.1 371.455 163.7 374.055 161.1C376.655 158.5 380.055 157.2 384.255 157.2C388.455 157.2 391.855 158.5 394.455 161.1C397.055 163.7 398.355 167.1 398.355 171.3ZM439.16 159C443.16 159 446.36 160.3 448.76 162.9C451.36 165.3 452.66 168.5 452.66 172.5C452.66 176.5 451.36 179.8 448.76 182.4C446.36 184.8 443.16 186 439.16 186H432.86L434.66 182.4V251.4L434.06 247.8H436.16C440.16 247.8 443.36 249.1 445.76 251.7C448.36 254.1 449.66 257.3 449.66 261.3C449.66 265.3 448.36 268.6 445.76 271.2C443.36 273.6 440.16 274.8 436.16 274.8H434.06L434.66 271.2V345.6L433.46 342H437.66C441.66 342 444.86 343.3 447.26 345.9C449.86 348.3 451.16 351.5 451.16 355.5C451.16 359.5 449.86 362.8 447.26 365.4C444.86 367.8 441.66 369 437.66 369H418.16C414.16 369 410.86 367.8 408.26 365.4C405.86 362.8 404.66 359.5 404.66 355.5V172.5C404.66 168.5 405.86 165.3 408.26 162.9C410.86 160.3 414.16 159 418.16 159H439.16ZM508.045 159C512.045 159 515.245 160.3 517.645 162.9C520.245 165.3 521.545 168.5 521.545 172.5C521.545 176.5 520.245 179.8 517.645 182.4C515.245 184.8 512.045 186 508.045 186H503.545V355.8C503.545 360.4 502.145 364.1 499.345 366.9C496.745 369.5 493.145 370.8 488.545 370.8C483.945 370.8 480.245 369.5 477.445 366.9C474.845 364.1 473.545 360.4 473.545 355.8V186H469.045C465.045 186 461.745 184.8 459.145 182.4C456.745 179.8 455.545 176.5 455.545 172.5C455.545 168.5 456.745 165.3 459.145 162.9C461.745 160.3 465.045 159 469.045 159H508.045ZM586.559 188.7C586.559 187.1 586.359 186 585.959 185.4C585.559 184.6 584.759 184.2 583.559 184.2C582.559 184.2 581.759 184.6 581.159 185.4C580.759 186 580.559 187.1 580.559 188.7V339.3C580.559 340.9 580.759 342.1 581.159 342.9C581.759 343.5 582.559 343.8 583.559 343.8C584.759 343.8 585.559 343.5 585.959 342.9C586.359 342.1 586.559 340.9 586.559 339.3V295.2C586.559 290.6 587.859 287 590.459 284.4C593.259 281.6 596.959 280.2 601.559 280.2C606.159 280.2 609.759 281.6 612.359 284.4C615.159 287 616.559 290.6 616.559 295.2V337.8C616.559 348.4 613.459 356.6 607.259 362.4C601.059 368 593.159 370.8 583.559 370.8C573.959 370.8 566.059 368 559.859 362.4C553.659 356.6 550.559 348.4 550.559 337.8V190.2C550.559 179.8 553.659 171.7 559.859 165.9C566.259 160.1 574.259 157.2 583.859 157.2C593.459 157.2 601.259 160.1 607.259 165.9C613.459 171.5 616.559 179.6 616.559 190.2V223.5C616.559 228.1 615.159 231.8 612.359 234.6C609.759 237.2 606.159 238.5 601.559 238.5C596.959 238.5 593.259 237.2 590.459 234.6C587.859 231.8 586.559 228.1 586.559 223.5V188.7ZM688.629 190.2V337.8C688.629 348.4 685.529 356.6 679.329 362.4C673.129 368 665.229 370.8 655.629 370.8C646.029 370.8 638.129 368 631.929 362.4C625.729 356.6 622.629 348.4 622.629 337.8V190.2C622.629 179.8 625.729 171.7 631.929 165.9C638.329 160.1 646.329 157.2 655.929 157.2C665.529 157.2 673.329 160.1 679.329 165.9C685.529 171.5 688.629 179.6 688.629 190.2ZM658.629 188.7C658.629 187.1 658.329 186 657.729 185.4C657.329 184.6 656.629 184.2 655.629 184.2C654.629 184.2 653.829 184.6 653.229 185.4C652.829 186 652.629 187.1 652.629 188.7V339.3C652.629 340.9 652.829 342.1 653.229 342.9C653.829 343.5 654.629 343.8 655.629 343.8C656.629 343.8 657.329 343.5 657.729 342.9C658.329 342.1 658.629 340.9 658.629 339.3V188.7ZM802.699 182.1V356.7C802.699 360.9 801.399 364.3 798.799 366.9C796.199 369.5 792.799 370.8 788.599 370.8C784.399 370.8 780.999 369.5 778.399 366.9C775.799 364.3 774.499 360.9 774.499 356.7L775.999 231.3L775.699 198H775.099L772.999 231.3L762.799 356.4C762.399 360.6 760.899 364.1 758.299 366.9C755.899 369.5 752.599 370.8 748.399 370.8C744.199 370.8 740.899 369.5 738.499 366.9C736.099 364.1 734.699 360.6 734.299 356.4L724.399 231.3L722.299 198H721.699L721.399 231.3L722.899 356.7C722.899 360.9 721.599 364.3 718.999 366.9C716.399 369.5 712.999 370.8 708.799 370.8C704.599 370.8 701.199 369.5 698.599 366.9C695.999 364.3 694.699 360.9 694.699 356.7V182.1C694.699 173.9 696.799 167.7 700.999 163.5C705.199 159.3 711.499 157.2 719.899 157.2C727.699 157.2 733.599 159.2 737.599 163.2C741.599 167.2 743.799 173.5 744.199 182.1L747.499 283.8L748.699 312H749.299L750.199 283.8L753.199 182.1C753.599 173.5 755.799 167.2 759.799 163.2C763.799 159.2 769.699 157.2 777.499 157.2C785.899 157.2 792.199 159.3 796.399 163.5C800.599 167.7 802.699 173.9 802.699 182.1ZM874.664 189V252C874.664 262.6 871.964 270.3 866.564 275.1C861.164 279.7 852.864 282 841.664 282H838.664V355.8C838.664 360.4 837.264 364.1 834.464 366.9C831.864 369.5 828.264 370.8 823.664 370.8C819.064 370.8 815.364 369.5 812.564 366.9C809.964 364.1 808.664 360.4 808.664 355.8V174C808.664 169.4 809.964 165.8 812.564 163.2C815.364 160.4 819.064 159 823.664 159H841.964C852.964 159 861.164 161.4 866.564 166.2C871.964 170.8 874.664 178.4 874.664 189ZM844.664 190.5C844.664 188.9 844.364 187.8 843.764 187.2C843.364 186.4 842.664 186 841.664 186H838.664V255H841.664C842.664 255 843.364 254.7 843.764 254.1C844.364 253.3 844.664 252.1 844.664 250.5V190.5ZM946.734 172.2V339.9C946.734 349.7 943.634 357.3 937.434 362.7C931.234 368.1 923.334 370.8 913.734 370.8C904.134 370.8 896.234 368.1 890.034 362.7C883.834 357.3 880.734 349.7 880.734 339.9V172.2C880.734 167.6 882.034 164 884.634 161.4C887.434 158.6 891.134 157.2 895.734 157.2C900.334 157.2 903.934 158.6 906.534 161.4C909.334 164 910.734 167.6 910.734 172.2V339.6C910.734 341 910.934 342.1 911.334 342.9C911.934 343.5 912.734 343.8 913.734 343.8C914.734 343.8 915.434 343.5 915.834 342.9C916.434 342.1 916.734 341 916.734 339.6V172.2C916.734 167.6 918.034 164 920.634 161.4C923.434 158.6 927.134 157.2 931.734 157.2C936.334 157.2 939.934 158.6 942.534 161.4C945.334 164 946.734 167.6 946.734 172.2ZM1002.87 159C1006.87 159 1010.07 160.3 1012.47 162.9C1015.07 165.3 1016.37 168.5 1016.37 172.5C1016.37 176.5 1015.07 179.8 1012.47 182.4C1010.07 184.8 1006.87 186 1002.87 186H998.37V355.8C998.37 360.4 996.97 364.1 994.17 366.9C991.57 369.5 987.97 370.8 983.37 370.8C978.77 370.8 975.07 369.5 972.27 366.9C969.67 364.1 968.37 360.4 968.37 355.8V186H963.87C959.87 186 956.57 184.8 953.97 182.4C951.57 179.8 950.37 176.5 950.37 172.5C950.37 168.5 951.57 165.3 953.97 162.9C956.57 160.3 959.87 159 963.87 159H1002.87ZM1054.39 159C1058.39 159 1061.59 160.3 1063.99 162.9C1066.59 165.3 1067.89 168.5 1067.89 172.5C1067.89 176.5 1066.59 179.8 1063.99 182.4C1061.59 184.8 1058.39 186 1054.39 186H1048.09L1049.89 182.4V251.4L1049.29 247.8H1051.39C1055.39 247.8 1058.59 249.1 1060.99 251.7C1063.59 254.1 1064.89 257.3 1064.89 261.3C1064.89 265.3 1063.59 268.6 1060.99 271.2C1058.59 273.6 1055.39 274.8 1051.39 274.8H1049.29L1049.89 271.2V345.6L1048.69 342H1052.89C1056.89 342 1060.09 343.3 1062.49 345.9C1065.09 348.3 1066.39 351.5 1066.39 355.5C1066.39 359.5 1065.09 362.8 1062.49 365.4C1060.09 367.8 1056.89 369 1052.89 369H1033.39C1029.39 369 1026.09 367.8 1023.49 365.4C1021.09 362.8 1019.89 359.5 1019.89 355.5V172.5C1019.89 168.5 1021.09 165.3 1023.49 162.9C1026.09 160.3 1029.39 159 1033.39 159H1054.39ZM1107.75 280.5C1107.75 278.9 1107.45 277.8 1106.85 277.2C1106.45 276.4 1105.75 276 1104.75 276H1100.55L1101.75 272.4V355.8C1101.75 360.4 1100.35 364.1 1097.55 366.9C1094.95 369.5 1091.35 370.8 1086.75 370.8C1082.15 370.8 1078.45 369.5 1075.65 366.9C1073.05 364.1 1071.75 360.4 1071.75 355.8V174C1071.75 169.4 1073.05 165.8 1075.65 163.2C1078.45 160.4 1082.15 159 1086.75 159H1105.05C1116.05 159 1124.25 161.4 1129.65 166.2C1135.05 170.8 1137.75 178.4 1137.75 189V231.6C1137.75 240.6 1137.05 247.5 1135.65 252.3C1134.45 256.9 1130.95 260.2 1125.15 262.2V262.8C1130.95 264.6 1134.45 267.9 1135.65 272.7C1137.05 277.3 1137.75 284.2 1137.75 293.4V355.8C1137.75 360.4 1136.35 364.1 1133.55 366.9C1130.95 369.5 1127.35 370.8 1122.75 370.8C1118.15 370.8 1114.45 369.5 1111.65 366.9C1109.05 364.1 1107.75 360.4 1107.75 355.8V280.5ZM1107.75 190.5C1107.75 188.9 1107.45 187.8 1106.85 187.2C1106.45 186.4 1105.75 186 1104.75 186H1100.55L1101.75 182.4V252.6L1100.55 249H1104.75C1105.75 249 1106.45 248.7 1106.85 248.1C1107.45 247.3 1107.75 246.1 1107.75 244.5V190.5Z" fill="white"/>
<path d="M34.668 36.6V120.45C34.668 125.35 33.118 129.15 30.018 131.85C26.918 134.55 22.968 135.9 18.168 135.9C13.368 135.9 9.41797 134.55 6.31797 131.85C3.21797 129.15 1.66797 125.35 1.66797 120.45V36.6C1.66797 34.3 2.31797 32.5 3.61797 31.2C5.01797 29.8 6.86797 29.1 9.16797 29.1C11.468 29.1 13.268 29.8 14.568 31.2C15.968 32.5 16.668 34.3 16.668 36.6V120.3C16.668 121 16.768 121.55 16.968 121.95C17.268 122.25 17.668 122.4 18.168 122.4C18.668 122.4 19.018 122.25 19.218 121.95C19.518 121.55 19.668 121 19.668 120.3V36.6C19.668 34.3 20.318 32.5 21.618 31.2C23.018 29.8 24.868 29.1 27.168 29.1C29.468 29.1 31.268 29.8 32.568 31.2C33.968 32.5 34.668 34.3 34.668 36.6ZM70.4031 102.75V119.4C70.4031 124.7 68.8531 128.8 65.7531 131.7C62.6531 134.5 58.7031 135.9 53.9031 135.9C49.1031 135.9 45.1531 134.5 42.0531 131.7C38.9531 128.8 37.4031 124.7 37.4031 119.4V105.6C37.4031 103.3 38.0531 101.5 39.3531 100.2C40.7531 98.8 42.6031 98.1 44.9031 98.1C47.2031 98.1 49.0031 98.8 50.3031 100.2C51.7031 101.5 52.4031 103.3 52.4031 105.6V120.15C52.4031 120.95 52.5031 121.55 52.7031 121.95C53.0031 122.25 53.4031 122.4 53.9031 122.4C54.4031 122.4 54.7531 122.25 54.9531 121.95C55.2531 121.55 55.4031 120.95 55.4031 120.15V102.75C55.4031 99.55 54.5531 96.4 52.8531 93.3C51.2531 90.1 49.4031 86.8 47.3031 83.4C44.9031 79.5 42.6531 75.45 40.5531 71.25C38.4531 67.05 37.4031 62.5 37.4031 57.6V45.6C37.4031 40.4 38.9531 36.35 42.0531 33.45C45.2531 30.55 49.2531 29.1 54.0531 29.1C58.8531 29.1 62.7531 30.55 65.7531 33.45C68.8531 36.25 70.4031 40.3 70.4031 45.6V54.75C70.4031 57.05 69.7031 58.9 68.3031 60.3C67.0031 61.6 65.2031 62.25 62.9031 62.25C60.6031 62.25 58.7531 61.6 57.3531 60.3C56.0531 58.9 55.4031 57.05 55.4031 54.75V44.85C55.4031 44.05 55.2531 43.5 54.9531 43.2C54.7531 42.8 54.4031 42.6 53.9031 42.6C53.4031 42.6 53.0031 42.8 52.7031 43.2C52.5031 43.5 52.4031 44.05 52.4031 44.85V57.6C52.4031 60.8 53.2031 64 54.8031 67.2C56.5031 70.3 58.4031 73.55 60.5031 76.95C62.9031 80.85 65.1531 84.95 67.2531 89.25C69.3531 93.45 70.4031 97.95 70.4031 102.75ZM90.4023 30C92.4023 30 94.0023 30.65 95.2023 31.95C96.5023 33.15 97.1523 34.75 97.1523 36.75C97.1523 38.75 96.5023 40.4 95.2023 41.7C94.0023 42.9 92.4023 43.5 90.4023 43.5H87.2523L88.1523 41.7V76.2L87.8523 74.4H88.9023C90.9023 74.4 92.5023 75.05 93.7023 76.35C95.0023 77.55 95.6523 79.15 95.6523 81.15C95.6523 83.15 95.0023 84.8 93.7023 86.1C92.5023 87.3 90.9023 87.9 88.9023 87.9H87.8523L88.1523 86.1V123.3L87.5523 121.5H89.6523C91.6523 121.5 93.2523 122.15 94.4523 123.45C95.7523 124.65 96.4023 126.25 96.4023 128.25C96.4023 130.25 95.7523 131.9 94.4523 133.2C93.2523 134.4 91.6523 135 89.6523 135H79.9023C77.9023 135 76.2523 134.4 74.9523 133.2C73.7523 131.9 73.1523 130.25 73.1523 128.25V36.75C73.1523 34.75 73.7523 33.15 74.9523 31.95C76.2523 30.65 77.9023 30 79.9023 30H90.4023ZM136.857 30C138.857 30 140.457 30.65 141.657 31.95C142.957 33.15 143.607 34.75 143.607 36.75C143.607 38.75 142.957 40.4 141.657 41.7C140.457 42.9 138.857 43.5 136.857 43.5H134.607V128.4C134.607 130.7 133.907 132.55 132.507 133.95C131.207 135.25 129.407 135.9 127.107 135.9C124.807 135.9 122.957 135.25 121.557 133.95C120.257 132.55 119.607 130.7 119.607 128.4V43.5H117.357C115.357 43.5 113.707 42.9 112.407 41.7C111.207 40.4 110.607 38.75 110.607 36.75C110.607 34.75 111.207 33.15 112.407 31.95C113.707 30.65 115.357 30 117.357 30H136.857ZM178.369 36.6V128.4C178.369 130.7 177.669 132.55 176.269 133.95C174.969 135.25 173.169 135.9 170.869 135.9C168.569 135.9 166.719 135.25 165.319 133.95C164.019 132.55 163.369 130.7 163.369 128.4V87.6L165.019 89.4H159.169L160.369 87.6V128.4C160.369 130.7 159.669 132.55 158.269 133.95C156.969 135.25 155.169 135.9 152.869 135.9C150.569 135.9 148.719 135.25 147.319 133.95C146.019 132.55 145.369 130.7 145.369 128.4V36.6C145.369 34.3 146.019 32.5 147.319 31.2C148.719 29.8 150.569 29.1 152.869 29.1C155.169 29.1 156.969 29.8 158.269 31.2C159.669 32.5 160.369 34.3 160.369 36.6V77.7L158.719 75.9H164.569L163.369 77.7V36.6C163.369 34.3 164.019 32.5 165.319 31.2C166.719 29.8 168.569 29.1 170.869 29.1C173.169 29.1 174.969 29.8 176.269 31.2C177.669 32.5 178.369 34.3 178.369 36.6ZM198.654 30C200.654 30 202.254 30.65 203.454 31.95C204.754 33.15 205.404 34.75 205.404 36.75C205.404 38.75 204.754 40.4 203.454 41.7C202.254 42.9 200.654 43.5 198.654 43.5H195.504L196.404 41.7V76.2L196.104 74.4H197.154C199.154 74.4 200.754 75.05 201.954 76.35C203.254 77.55 203.904 79.15 203.904 81.15C203.904 83.15 203.254 84.8 201.954 86.1C200.754 87.3 199.154 87.9 197.154 87.9H196.104L196.404 86.1V123.3L195.804 121.5H197.904C199.904 121.5 201.504 122.15 202.704 123.45C204.004 124.65 204.654 126.25 204.654 128.25C204.654 130.25 204.004 131.9 202.704 133.2C201.504 134.4 199.904 135 197.904 135H188.154C186.154 135 184.504 134.4 183.204 133.2C182.004 131.9 181.404 130.25 181.404 128.25V36.75C181.404 34.75 182.004 33.15 183.204 31.95C184.504 30.65 186.154 30 188.154 30H198.654Z" fill="white"/>
<g clip-path="url(#clip0_387_165)">
<path d="M813.86 206.531C766.993 186.2 745.482 131.726 765.813 84.8594C786.144 37.9929 840.618 16.4815 887.484 36.8123C934.351 57.1432 955.862 111.617 935.531 158.484C915.201 205.35 860.726 226.862 813.86 206.531Z" fill="#5057FF"/>
<path d="M781.562 109.209C775.732 106.679 773.056 99.9027 775.585 94.0726C778.114 88.2424 784.891 85.5664 790.721 88.0955C796.551 90.6247 799.227 97.4013 796.698 103.231C794.169 109.062 787.392 111.738 781.562 109.209Z" fill="white"/>
<mask id="mask0_387_165" style="mask-type:luminance" maskUnits="userSpaceOnUse" x="774" y="87" width="24" height="24">
<path d="M781.562 109.209C775.732 106.679 773.056 99.9027 775.585 94.0726C778.114 88.2424 784.891 85.5664 790.721 88.0955C796.551 90.6247 799.227 97.4013 796.698 103.231C794.169 109.062 787.392 111.738 781.562 109.209Z" fill="white"/>
</mask>
<g mask="url(#mask0_387_165)">
<path d="M778.387 108.664C773.756 106.656 771.631 101.274 773.64 96.6431C775.648 92.0127 781.03 89.8874 785.661 91.8961C790.291 93.9048 792.417 99.2868 790.408 103.917C788.399 108.548 783.017 110.673 778.387 108.664Z" fill="#0A0B15"/>
</g>
<path d="M810.55 105.88C804.72 103.35 802.044 96.5739 804.573 90.7437C807.102 84.9135 813.879 82.2375 819.709 84.7666C825.539 87.2958 828.215 94.0724 825.686 99.9026C823.157 105.733 816.38 108.409 810.55 105.88Z" fill="white"/>
<mask id="mask1_387_165" style="mask-type:luminance" maskUnits="userSpaceOnUse" x="803" y="83" width="24" height="24">
<path d="M810.55 105.88C804.72 103.35 802.044 96.5739 804.573 90.7437C807.102 84.9135 813.879 82.2375 819.709 84.7666C825.539 87.2958 828.215 94.0724 825.686 99.9026C823.157 105.733 816.38 108.409 810.55 105.88Z" fill="white"/>
</mask>
<g mask="url(#mask1_387_165)">
<path d="M807.391 105.329C802.76 103.32 800.635 97.9382 802.644 93.3077C804.652 88.6773 810.034 86.552 814.665 88.5607C819.295 90.5694 821.42 95.9514 819.412 100.582C817.403 105.212 812.021 107.338 807.391 105.329Z" fill="#0A0B15"/>
</g>
<path d="M807.619 111.424C806.177 115.679 799.463 116.436 797.096 112.627C796.419 111.553 797.41 110.074 798.664 110.282L799.221 110.362C801.504 110.708 803.447 110.381 805.565 109.498C806.747 109.003 808.029 110.231 807.619 111.424Z" fill="#0A0B15"/>
</g>
<path d="M803 182.1V356.7C803 360.9 801.7 364.3 799.1 366.9C796.5 369.5 793.1 370.8 788.9 370.8C784.7 370.8 781.3 369.5 778.7 366.9C776.1 364.3 774.8 360.9 774.8 356.7L776.3 231.3L776 198H775.4L773.3 231.3L763.1 356.4C762.7 360.6 761.2 364.1 758.6 366.9C756.2 369.5 752.9 370.8 748.7 370.8C744.5 370.8 741.2 369.5 738.8 366.9C736.4 364.1 735 360.6 734.6 356.4L724.7 231.3L722.6 198H722L721.7 231.3L723.2 356.7C723.2 360.9 721.9 364.3 719.3 366.9C716.7 369.5 713.3 370.8 709.1 370.8C704.9 370.8 701.5 369.5 698.9 366.9C696.3 364.3 695 360.9 695 356.7V182.1C695 173.9 697.1 167.7 701.3 163.5C705.5 159.3 711.8 157.2 720.2 157.2C728 157.2 733.9 159.2 737.9 163.2C741.9 167.2 744.1 173.5 744.5 182.1L747.8 283.8L749 312H749.6L750.5 283.8L753.5 182.1C753.9 173.5 756.1 167.2 760.1 163.2C764.1 159.2 770 157.2 777.8 157.2C786.2 157.2 792.5 159.3 796.7 163.5C800.9 167.7 803 173.9 803 182.1Z" fill="white"/>
<path d="M948 172.2V339.9C948 349.7 944.9 357.3 938.7 362.7C932.5 368.1 924.6 370.8 915 370.8C905.4 370.8 897.5 368.1 891.3 362.7C885.1 357.3 882 349.7 882 339.9V172.2C882 167.6 883.3 164 885.9 161.4C888.7 158.6 892.4 157.2 897 157.2C901.6 157.2 905.2 158.6 907.8 161.4C910.6 164 912 167.6 912 172.2V339.6C912 341 912.2 342.1 912.6 342.9C913.2 343.5 914 343.8 915 343.8C916 343.8 916.7 343.5 917.1 342.9C917.7 342.1 918 341 918 339.6V172.2C918 167.6 919.3 164 921.9 161.4C924.7 158.6 928.4 157.2 933 157.2C937.6 157.2 941.2 158.6 943.8 161.4C946.6 164 948 167.6 948 172.2Z" fill="white"/>
<g clip-path="url(#clip1_387_165)">
<path d="M1080 318.711C1103.91 332.515 1112.1 363.088 1098.29 386.998C1084.49 410.908 1053.92 419.1 1030.01 405.296C1006.1 391.491 997.904 360.918 1011.71 337.008C1025.51 313.098 1056.09 304.906 1080 318.711Z" fill="#FF41FF"/>
<path d="M1049.52 381.225C1052.49 382.945 1053.5 386.748 1051.78 389.72C1050.06 392.692 1046.26 393.706 1043.29 391.986C1040.32 390.266 1039.3 386.463 1041.02 383.491C1042.74 380.52 1046.55 379.505 1049.52 381.225Z" fill="white"/>
<mask id="mask2_387_165" style="mask-type:luminance" maskUnits="userSpaceOnUse" x="1040" y="380" width="13" height="13">
<path d="M1049.52 381.225C1052.49 382.945 1053.5 386.748 1051.78 389.72C1050.06 392.692 1046.26 393.706 1043.29 391.986C1040.32 390.266 1039.3 386.463 1041.02 383.491C1042.74 380.52 1046.55 379.505 1049.52 381.225Z" fill="white"/>
</mask>
<g mask="url(#mask2_387_165)">
<path d="M1051.59 383.027C1053.95 384.393 1054.76 387.414 1053.39 389.774C1052.03 392.134 1049 392.94 1046.64 391.574C1044.28 390.208 1043.48 387.187 1044.84 384.827C1046.21 382.467 1049.23 381.661 1051.59 383.027Z" fill="#0A0B15"/>
</g>
<path d="M1033.75 380.673C1036.72 382.393 1037.74 386.196 1036.02 389.168C1034.3 392.139 1030.49 393.154 1027.52 391.434C1024.55 389.714 1023.54 385.911 1025.26 382.939C1026.98 379.967 1030.78 378.953 1033.75 380.673Z" fill="white"/>
<mask id="mask3_387_165" style="mask-type:luminance" maskUnits="userSpaceOnUse" x="1024" y="379" width="13" height="14">
<path d="M1033.75 380.673C1036.72 382.393 1037.74 386.196 1036.02 389.168C1034.3 392.139 1030.49 393.154 1027.52 391.434C1024.55 389.714 1023.54 385.911 1025.26 382.939C1026.98 379.967 1030.78 378.953 1033.75 380.673Z" fill="white"/>
</mask>
<g mask="url(#mask3_387_165)">
<path d="M1035.83 382.478C1038.19 383.844 1039 386.865 1037.63 389.225C1036.27 391.585 1033.24 392.391 1030.88 391.025C1028.52 389.659 1027.72 386.638 1029.08 384.278C1030.45 381.918 1033.47 381.112 1035.83 382.478Z" fill="#0A0B15"/>
</g>
<path d="M1035.01 395.107C1035.95 397.349 1039.6 397.511 1040.73 395.369C1041.06 394.765 1040.47 394.004 1039.8 394.162L1039.5 394.226C1038.29 394.496 1037.23 394.391 1036.05 393.993C1035.4 393.769 1034.75 394.479 1035.01 395.107Z" fill="#0A0B15"/>
</g>
<path d="M1108 280.5C1108 278.9 1107.7 277.8 1107.1 277.2C1106.7 276.4 1106 276 1105 276H1100.8L1102 272.4V355.8C1102 360.4 1100.6 364.1 1097.8 366.9C1095.2 369.5 1091.6 370.8 1087 370.8C1082.4 370.8 1078.7 369.5 1075.9 366.9C1073.3 364.1 1072 360.4 1072 355.8V174C1072 169.4 1073.3 165.8 1075.9 163.2C1078.7 160.4 1082.4 159 1087 159H1105.3C1116.3 159 1124.5 161.4 1129.9 166.2C1135.3 170.8 1138 178.4 1138 189V231.6C1138 240.6 1137.3 247.5 1135.9 252.3C1134.7 256.9 1131.2 260.2 1125.4 262.2V262.8C1131.2 264.6 1134.7 267.9 1135.9 272.7C1137.3 277.3 1138 284.2 1138 293.4V355.8C1138 360.4 1136.6 364.1 1133.8 366.9C1131.2 369.5 1127.6 370.8 1123 370.8C1118.4 370.8 1114.7 369.5 1111.9 366.9C1109.3 364.1 1108 360.4 1108 355.8V280.5ZM1108 190.5C1108 188.9 1107.7 187.8 1107.1 187.2C1106.7 186.4 1106 186 1105 186H1100.8L1102 182.4V252.6L1100.8 249H1105C1106 249 1106.7 248.7 1107.1 248.1C1107.7 247.3 1108 246.1 1108 244.5V190.5Z" fill="white"/>
<defs>
<clipPath id="clip0_387_165">
<rect width="185" height="185" fill="white" transform="matrix(-0.917398 -0.397971 -0.397971 0.917398 972.344 73.6246)"/>
</clipPath>
<clipPath id="clip1_387_165">
<rect width="100" height="100" fill="white" transform="matrix(1 0 0 -1 1005 412)"/>
</clipPath>
</defs>
</svg>
