<svg width="195" height="24" viewBox="0 0 195 24" fill="none" xmlns="http://www.w3.org/2000/svg">
<path d="M0 21.9825V0.677876C0 0.462678 0.107599 0.355079 0.322797 0.355079H4.16409C4.42233 0.355079 4.59449 0.462678 4.68056 0.677876L10.2327 13.2024H10.3618L15.8171 0.677876C15.9032 0.462678 16.0753 0.355079 16.3336 0.355079H20.1103C20.3255 0.355079 20.4331 0.462678 20.4331 0.677876V21.9825C20.4331 22.1977 20.3255 22.3053 20.1103 22.3053H16.4627C16.2475 22.3053 16.1399 22.1977 16.1399 21.9825V9.61937H16.0108L11.9435 18.8837C11.8144 19.1634 11.61 19.3033 11.3302 19.3033H9.10289C8.82313 19.3033 8.6187 19.1634 8.48958 18.8837L4.42233 9.61937H4.29321V21.9825C4.29321 22.1977 4.18561 22.3053 3.97041 22.3053H0.322797C0.107599 22.3053 0 22.1977 0 21.9825Z" fill="white"/>
<path d="M22.3278 21.9825L29.8812 0.677876C29.9458 0.462678 30.0857 0.355079 30.3009 0.355079H34.3681C34.5833 0.355079 34.7232 0.462678 34.7877 0.677876L42.2121 21.9825C42.2766 22.1977 42.2013 22.3053 41.9861 22.3053H37.7898C37.5746 22.3053 37.4347 22.1977 37.3701 21.9825L36.1112 18.1412H28.4286L27.202 21.9825C27.1374 22.1977 26.9976 22.3053 26.7824 22.3053H22.5537C22.3385 22.3053 22.2632 22.1977 22.3278 21.9825ZM29.7521 14.1063H34.82L32.3345 6.42367H32.2376L29.7521 14.1063Z" fill="white"/>
<path d="M51.4943 22.6604C49.8372 22.6604 48.234 22.3806 46.6846 21.8211C45.1352 21.2401 43.9193 20.5192 43.037 19.6584C42.8648 19.4862 42.8541 19.3033 43.0047 19.1096L45.458 16.3013C45.5871 16.1291 45.7485 16.1184 45.9422 16.269C47.8359 17.7754 49.7512 18.5286 51.688 18.5286C52.807 18.5286 53.6785 18.2919 54.3026 17.8184C54.9482 17.345 55.271 16.7102 55.271 15.9139C55.271 15.2253 55.0128 14.6873 54.4963 14.2999C54.0013 13.9126 53.1298 13.6328 51.8816 13.4607L50.7196 13.2993C46.0928 12.6537 43.7794 10.4586 43.7794 6.71419C43.7794 4.69133 44.4788 3.06658 45.8776 1.83995C47.2979 0.613316 49.1917 0 51.5588 0C54.5501 0 57.0356 0.763955 59.0155 2.29186C59.2091 2.42098 59.2307 2.58238 59.08 2.77606L57.111 5.71352C56.9818 5.88568 56.8312 5.91796 56.659 5.81036C54.9375 4.69133 53.2374 4.13181 51.5588 4.13181C50.612 4.13181 49.8803 4.35777 49.3638 4.80968C48.8689 5.24008 48.6214 5.81036 48.6214 6.52051C48.6214 7.16611 48.8796 7.69334 49.3961 8.10222C49.9341 8.48958 50.8164 8.76933 52.043 8.94149L53.2051 9.10289C57.8104 9.72697 60.113 11.9435 60.113 15.7525C60.113 17.8184 59.3598 19.4862 57.8534 20.7559C56.3685 22.0256 54.2488 22.6604 51.4943 22.6604Z" fill="white"/>
<path d="M80.4404 21.3692L77.858 23.887C77.6859 24.0377 77.5245 24.0377 77.3738 23.887L75.1465 21.6597C73.8123 22.3268 72.3274 22.6604 70.6919 22.6604C68.7336 22.6604 67.0443 22.2085 65.624 21.3046C64.2252 20.4008 63.246 19.0773 62.6865 17.3342C62.2777 16.043 62.0732 14.0417 62.0732 11.3302C62.0732 8.6187 62.2777 6.61735 62.6865 5.32616C63.246 3.58305 64.2252 2.25958 65.624 1.35575C67.0443 0.451917 68.7336 0 70.6919 0C72.6502 0 74.3288 0.451917 75.7276 1.35575C77.1479 2.25958 78.1378 3.58305 78.6973 5.32616C79.1062 6.61735 79.3106 8.6187 79.3106 11.3302C79.3106 14.0417 79.1062 16.043 78.6973 17.3342C78.5897 17.657 78.4068 18.0982 78.1485 18.6577L80.4404 20.9173C80.591 21.0679 80.591 21.2186 80.4404 21.3692ZM70.6919 18.4963C71.1438 18.4963 71.5312 18.4533 71.854 18.3672L70.466 16.9792C70.3153 16.8285 70.3153 16.6779 70.466 16.5272L73.0483 14.074C73.2205 13.9233 73.3819 13.9233 73.5325 14.074L74.4041 14.9455C74.4902 14.2784 74.5332 13.0733 74.5332 11.3302C74.5332 8.87693 74.4148 7.29523 74.1781 6.58507C73.6617 4.97108 72.4996 4.16409 70.6919 4.16409C68.8842 4.16409 67.7222 4.97108 67.2057 6.58507C66.969 7.29523 66.8506 8.87693 66.8506 11.3302C66.8506 13.7835 66.969 15.3652 67.2057 16.0753C67.7222 17.6893 68.8842 18.4963 70.6919 18.4963Z" fill="white"/>
<path d="M90.6063 22.6604C88.0669 22.6604 86.0225 21.9287 84.4731 20.4654C82.9452 18.9805 82.1812 16.9038 82.1812 14.2354V0.677876C82.1812 0.462678 82.2888 0.355079 82.504 0.355079H86.6036C86.8188 0.355079 86.9264 0.462678 86.9264 0.677876V14.3645C86.9264 15.6557 87.2599 16.6671 87.927 17.3988C88.5941 18.1089 89.4872 18.464 90.6063 18.464C91.7253 18.464 92.6076 18.1089 93.2532 17.3988C93.9203 16.6671 94.2539 15.6557 94.2539 14.3645V0.677876C94.2539 0.462678 94.3615 0.355079 94.5767 0.355079H98.6762C98.8914 0.355079 98.999 0.462678 98.999 0.677876V14.2354C98.999 16.9038 98.2243 18.9805 96.6749 20.4654C95.1469 21.9287 93.1241 22.6604 90.6063 22.6604Z" fill="white"/>
<path d="M102.438 21.9825V0.677876C102.438 0.462678 102.545 0.355079 102.761 0.355079H116.835C117.05 0.355079 117.157 0.462678 117.157 0.677876V4.13181C117.157 4.34701 117.05 4.45461 116.835 4.45461H107.377C107.247 4.45461 107.183 4.51917 107.183 4.64828V9.00605C107.183 9.13517 107.247 9.19973 107.377 9.19973H115.253C115.468 9.19973 115.576 9.30733 115.576 9.52253V12.9442C115.576 13.1594 115.468 13.267 115.253 13.267H107.377C107.247 13.267 107.183 13.3315 107.183 13.4607V18.0121C107.183 18.1412 107.247 18.2058 107.377 18.2058H116.835C117.05 18.2058 117.157 18.3134 117.157 18.5286V21.9825C117.157 22.1977 117.05 22.3053 116.835 22.3053H102.761C102.545 22.3053 102.438 22.1977 102.438 21.9825Z" fill="white"/>
<path d="M136.765 22.3053H132.181C131.945 22.3053 131.783 22.1977 131.697 21.9825L127.92 13.9449H124.983C124.854 13.9449 124.789 14.0094 124.789 14.1385V21.9825C124.789 22.1977 124.682 22.3053 124.466 22.3053H120.367C120.152 22.3053 120.044 22.1977 120.044 21.9825V0.677876C120.044 0.462678 120.152 0.355079 120.367 0.355079H129.115C131.353 0.355079 133.15 0.989913 134.505 2.25958C135.883 3.50773 136.571 5.14324 136.571 7.16611C136.571 8.5649 136.227 9.80229 135.538 10.8783C134.85 11.9328 133.892 12.729 132.666 13.267L136.991 21.918C137.034 22.004 137.034 22.0901 136.991 22.1762C136.948 22.2623 136.873 22.3053 136.765 22.3053ZM128.857 9.90989C129.76 9.90989 130.481 9.66241 131.019 9.16745C131.557 8.6725 131.826 8.00538 131.826 7.16611C131.826 6.34835 131.557 5.692 131.019 5.19704C130.481 4.70209 129.76 4.45461 128.857 4.45461H124.983C124.854 4.45461 124.789 4.51917 124.789 4.64828V9.71621C124.789 9.84533 124.854 9.90989 124.983 9.90989H128.857Z" fill="white"/>
<path d="M137.896 21.9825L145.449 0.677876C145.514 0.462678 145.654 0.355079 145.869 0.355079H149.936C150.151 0.355079 150.291 0.462678 150.356 0.677876L157.78 21.9825C157.844 22.1977 157.769 22.3053 157.554 22.3053H153.358C153.142 22.3053 153.003 22.1977 152.938 21.9825L151.679 18.1412H143.996L142.77 21.9825C142.705 22.1977 142.565 22.3053 142.35 22.3053H138.122C137.906 22.3053 137.831 22.1977 137.896 21.9825ZM145.32 14.1063H150.388L147.902 6.42367H147.805L145.32 14.1063Z" fill="white"/>
<path d="M159.67 21.9825V0.677876C159.67 0.462678 159.778 0.355079 159.993 0.355079H168.16C172.162 0.355079 174.691 2.00135 175.745 5.29388C176.133 6.52051 176.326 8.53262 176.326 11.3302C176.326 14.1278 176.133 16.1399 175.745 17.3665C174.691 20.659 172.162 22.3053 168.16 22.3053H159.993C159.778 22.3053 159.67 22.1977 159.67 21.9825ZM164.415 17.883C164.415 18.0121 164.48 18.0767 164.609 18.0767H167.094C169.311 18.0767 170.667 17.2697 171.162 15.6557C171.398 14.9886 171.517 13.5467 171.517 11.3302C171.517 9.11365 171.398 7.67182 171.162 7.00471C170.667 5.39072 169.311 4.58373 167.094 4.58373H164.609C164.48 4.58373 164.415 4.64829 164.415 4.7774V17.883Z" fill="white"/>
<path d="M179.357 21.9825V0.677876C179.357 0.462678 179.465 0.355079 179.68 0.355079H193.754C193.969 0.355079 194.077 0.462678 194.077 0.677876V4.13181C194.077 4.34701 193.969 4.45461 193.754 4.45461H184.296C184.167 4.45461 184.102 4.51917 184.102 4.64828V9.00605C184.102 9.13517 184.167 9.19973 184.296 9.19973H192.172C192.387 9.19973 192.495 9.30733 192.495 9.52253V12.9442C192.495 13.1594 192.387 13.267 192.172 13.267H184.296C184.167 13.267 184.102 13.3315 184.102 13.4607V18.0121C184.102 18.1412 184.167 18.2058 184.296 18.2058H193.754C193.969 18.2058 194.077 18.3134 194.077 18.5286V21.9825C194.077 22.1977 193.969 22.3053 193.754 22.3053H179.68C179.465 22.3053 179.357 22.1977 179.357 21.9825Z" fill="white"/>
</svg>
