<svg width="18" height="18" viewBox="0 0 18 18" fill="none" xmlns="http://www.w3.org/2000/svg">
<path id="Vector" d="M7.33333 10.0242C7.45133 10.2174 7.59142 10.4003 7.7535 10.569C8.75975 11.6162 10.2935 11.78 11.4647 11.0602C11.6817 10.9268 11.8862 10.7631 12.0727 10.569L14.7722 7.7595C15.9648 6.5182 15.9648 4.50563 14.7722 3.26432C13.5794 2.023 11.6457 2.02301 10.4529 3.26432L9.85833 3.88315M8.14192 14.1167L7.54708 14.7357C6.35438 15.977 4.42059 15.977 3.22788 14.7357C2.03515 13.4943 2.03515 11.4818 3.22788 10.2405L5.92739 7.431C7.12011 6.18967 9.05392 6.18967 10.2466 7.431C10.4087 7.59958 10.5487 7.7825 10.6667 7.97567M16.5 12.3333H14.7676M12.3333 16.5V14.7676M1.5 5.66667H3.23241M5.66667 1.5V3.23241" stroke="white" stroke-width="1.5" stroke-linecap="round"/>
</svg>
