<svg width="17" height="18" viewBox="0 0 17 18" fill="none" xmlns="http://www.w3.org/2000/svg">
<path id="Vector" d="M6.83333 10.0242C6.95133 10.2174 7.09142 10.4003 7.2535 10.569C8.25975 11.6162 9.7935 11.78 10.9647 11.0602C11.1817 10.9268 11.3862 10.7631 11.5727 10.569L14.2722 7.7595C15.4648 6.5182 15.4648 4.50563 14.2722 3.26432C13.0794 2.023 11.1457 2.02301 9.95292 3.26432L9.35833 3.88315M7.64192 14.1167L7.04708 14.7357C5.85438 15.977 3.92059 15.977 2.72788 14.7357C1.53515 13.4943 1.53515 11.4818 2.72788 10.2405L5.42739 7.431C6.62011 6.18967 8.55392 6.18967 9.74658 7.431C9.90867 7.59958 10.0487 7.7825 10.1667 7.97567M16 12.3333H14.2676M11.8333 16.5V14.7676M1 5.66667H2.73241M5.16667 1.5V3.23241" stroke="#141B34" stroke-width="1.5" stroke-linecap="round"/>
</svg>
